<svg xmlns="http://www.w3.org/2000/svg" xmlns:xlink="http://www.w3.org/1999/xlink" version="1.1" width="641px" height="645px" style="shape-rendering:geometricPrecision; text-rendering:geometricPrecision; image-rendering:optimizeQuality; fill-rule:evenodd; clip-rule:evenodd">
<g><path style="opacity:1" fill="#41486a" d="M -0.5,-0.5 C 213.167,-0.5 426.833,-0.5 640.5,-0.5C 640.5,0.166667 640.5,0.833333 640.5,1.5C 427.167,1.5 213.833,1.5 0.5,1.5C 0.5,214.833 0.5,428.167 0.5,641.5C 213.833,641.5 427.167,641.5 640.5,641.5C 640.5,642.5 640.5,643.5 640.5,644.5C 426.833,644.5 213.167,644.5 -0.5,644.5C -0.5,429.5 -0.5,214.5 -0.5,-0.5 Z"/></g>
<g><path style="opacity:1" fill="#f56036" d="M 640.5,1.5 C 640.5,214.833 640.5,428.167 640.5,641.5C 427.167,641.5 213.833,641.5 0.5,641.5C 0.5,428.167 0.5,214.833 0.5,1.5C 213.833,1.5 427.167,1.5 640.5,1.5 Z"/></g>
<g><path style="opacity:1" fill="#614c62" d="M 201.5,33.5 C 203.346,33.2222 204.68,33.8888 205.5,35.5C 203.167,36.9415 201.834,36.2748 201.5,33.5 Z"/></g>
<g><path style="opacity:1" fill="#674c60" d="M 374.5,33.5 C 375.5,33.5 376.5,33.5 377.5,33.5C 376.754,37.31 375.754,37.31 374.5,33.5 Z"/></g>
<g><path style="opacity:1" fill="#5f4b62" d="M 454.5,33.5 C 458.229,35.9191 458.229,38.2525 454.5,40.5C 453.155,39.6533 452.155,38.4866 451.5,37C 453.426,36.5776 454.426,35.4109 454.5,33.5 Z"/></g>
<g><path style="opacity:1" fill="#584a64" d="M 257.5,36.5 C 260.956,37.5362 261.29,39.2029 258.5,41.5C 256.296,40.218 255.962,38.5514 257.5,36.5 Z"/></g>
<g><path style="opacity:1" fill="#624c61" d="M 380.5,36.5 C 381.978,36.238 383.311,36.5713 384.5,37.5C 383.833,37.8333 383.167,38.1667 382.5,38.5C 381.287,38.2528 380.62,37.5862 380.5,36.5 Z"/></g>
<g><path style="opacity:1" fill="#434869" d="M 450.5,470.5 C 449.735,471.66 448.735,472.66 447.5,473.5C 446.571,474.689 446.238,476.022 446.5,477.5C 441.571,476.305 438.571,478.138 437.5,483C 432.118,484.524 427.118,486.858 422.5,490C 422.105,492.781 420.772,494.947 418.5,496.5C 417.718,494.671 418.384,493.171 420.5,492C 415.646,492.989 410.646,493.655 405.5,494C 406.167,494.667 406.833,495.333 407.5,496C 404.428,497.158 401.428,498.491 398.5,500C 396.071,500.703 393.738,500.537 391.5,499.5C 387.689,498.355 383.689,498.188 379.5,499C 379.167,499.333 378.833,499.667 378.5,500C 380.473,500.495 382.473,500.662 384.5,500.5C 397.665,502.332 408.831,507.999 418,517.5C 425.643,514.397 433.476,511.897 441.5,510C 444.808,501.359 450.808,495.359 459.5,492C 464.533,491.065 469.533,490.065 474.5,489C 481.711,476.733 492.377,472.067 506.5,475C 511.527,476.017 516.194,477.851 520.5,480.5C 524.541,479.227 528.541,479.393 532.5,481C 534.716,483.553 537.216,485.72 540,487.5C 550.247,482.47 561.081,480.136 572.5,480.5C 573.778,480.782 574.778,481.449 575.5,482.5C 580.02,484.926 584.687,487.093 589.5,489C 590.696,489.654 590.696,490.154 589.5,490.5C 577.55,485.984 565.217,484.484 552.5,486C 547.786,487.774 543.286,489.941 539,492.5C 535.844,490.014 532.678,487.514 529.5,485C 523.373,483.621 522.039,485.454 525.5,490.5C 525.167,490.833 524.833,491.167 524.5,491.5C 513,479.87 500,477.703 485.5,485C 481.996,488.184 479.663,492.018 478.5,496.5C 469.108,493.672 460.941,495.672 454,502.5C 451.128,506.46 448.628,510.626 446.5,515C 442.128,515.421 437.795,516.088 433.5,517C 426.429,520.25 419.095,522.25 411.5,523C 409.65,520.982 407.65,519.149 405.5,517.5C 405.346,518.909 405.179,520.576 405,522.5C 403.021,523.714 401.521,525.381 400.5,527.5C 397.757,527.928 395.424,529.095 393.5,531C 390.411,531.148 387.578,531.981 385,533.5C 383.739,533.241 382.739,532.574 382,531.5C 380.667,532.833 379.333,534.167 378,535.5C 374.703,532.909 371.369,532.909 368,535.5C 367.586,535.043 367.086,534.709 366.5,534.5C 361.05,536.225 355.384,537.058 349.5,537C 339.319,542.06 328.652,545.727 317.5,548C 311.143,550.34 306.143,554.34 302.5,560C 292.051,566.454 280.718,570.787 268.5,573C 260.875,574.882 253.209,576.215 245.5,577C 261.683,572.606 277.683,567.606 293.5,562C 299.167,557 304.833,552 310.5,547C 317.128,543.592 324.128,541.259 331.5,540C 325.448,539.21 319.448,539.376 313.5,540.5C 312.548,538.955 312.215,537.288 312.5,535.5C 310.784,535.371 309.117,535.038 307.5,534.5C 306.998,532.915 305.998,532.415 304.5,533C 307.125,534.393 307.125,535.559 304.5,536.5C 302.424,537.647 300.424,538.981 298.5,540.5C 297.452,539.617 296.285,538.95 295,538.5C 292.667,539.833 290.333,539.833 288,538.5C 287.05,539.022 286.216,539.689 285.5,540.5C 284.289,539.726 284.289,538.893 285.5,538C 281.833,537.667 278.167,537.333 274.5,537C 273.027,536.29 272.36,535.124 272.5,533.5C 268.634,533.729 265.134,532.729 262,530.5C 261.691,528.487 262.358,528.154 264,529.5C 265.101,527.606 266.434,526.939 268,527.5C 252.822,521.125 239.155,524.125 227,536.5C 223.488,540.879 221.655,545.879 221.5,551.5C 208.698,551.255 196.031,552.421 183.5,555C 157.224,561.986 130.89,568.819 104.5,575.5C 102.901,575.768 101.568,575.434 100.5,574.5C 137.039,563.282 174.039,553.782 211.5,546C 224.977,519.6 245.643,511.6 273.5,522C 277.783,524.615 281.783,527.615 285.5,531C 286.873,531.875 288.373,532.375 290,532.5C 307.212,527.488 324.712,523.988 342.5,522C 344.293,519.205 346.46,516.705 349,514.5C 349.667,513.833 349.667,513.167 349,512.5C 346.705,515.065 343.872,516.731 340.5,517.5C 338.05,515.85 335.383,514.683 332.5,514C 328.445,513.768 324.445,513.268 320.5,512.5C 319.548,514.045 319.215,515.712 319.5,517.5C 312.633,517.895 311.966,516.395 317.5,513C 312.5,512.667 307.5,512.333 302.5,512C 305.167,511.333 305.167,510.667 302.5,510C 297.896,508.939 293.229,508.273 288.5,508C 287.541,506.536 286.208,505.703 284.5,505.5C 280.95,506.878 277.283,507.878 273.5,508.5C 270.896,507.731 269.062,506.064 268,503.5C 267.439,504.022 266.772,504.355 266,504.5C 261.047,503.039 256.214,501.206 251.5,499C 245.221,499.852 238.887,500.185 232.5,500C 229.301,497.287 225.634,495.787 221.5,495.5C 221.881,493.058 221.214,492.391 219.5,493.5C 215.193,491.357 212.026,488.024 210,483.5C 206.906,487.633 204.072,487.466 201.5,483C 197.334,480.67 193.001,478.837 188.5,477.5C 188.649,476.448 188.483,475.448 188,474.5C 185.235,473.403 183.569,471.403 183,468.5C 181.556,466.845 179.722,466.178 177.5,466.5C 177.66,464.801 177.494,463.134 177,461.5C 174.534,458.872 172.701,455.872 171.5,452.5C 173.628,447.524 177.294,444.691 182.5,444C 179.175,448.437 177.508,453.27 177.5,458.5C 183.407,449.59 190.073,441.256 197.5,433.5C 209.317,422.85 220.984,412.017 232.5,401C 233.5,400.333 234.5,400.333 235.5,401C 246.534,410.574 248.034,409.408 240,397.5C 239.333,396.5 239.333,395.5 240,394.5C 242.22,397.021 244.72,399.188 247.5,401C 248.759,401.982 250.092,402.315 251.5,402C 247.184,398.528 243.851,394.362 241.5,389.5C 241.529,387.971 242.196,386.804 243.5,386C 253.792,381.403 264.125,376.903 274.5,372.5C 285.092,376.992 284.759,381.158 273.5,385C 266.828,385.835 262.161,389.335 259.5,395.5C 260.289,397.488 261.455,397.821 263,396.5C 262.88,403.161 262.88,409.827 263,416.5C 266.651,422.673 271.818,426.673 278.5,428.5C 277.097,423.305 276.43,417.971 276.5,412.5C 276.672,405.67 277.672,399.004 279.5,392.5C 281.655,392.628 283.655,392.128 285.5,391C 291.342,387.246 297.009,383.246 302.5,379C 306.835,378.8 311.002,379.634 315,381.5C 316.643,380.685 318.143,379.685 319.5,378.5C 320.167,378.5 320.5,378.833 320.5,379.5C 321.334,380.748 322.667,381.415 324.5,381.5C 325.833,381.333 327.167,381.167 328.5,381C 338.438,370.898 347.771,360.398 356.5,349.5C 348.462,361.718 339.796,373.551 330.5,385C 332.657,385.078 334.657,385.245 336.5,385.5C 333.56,389.321 332.227,393.654 332.5,398.5C 333.93,398.579 335.264,398.246 336.5,397.5C 336.62,409.086 342.12,416.753 353,420.5C 353.772,420.355 354.439,420.022 355,419.5C 350.251,408.088 348.251,396.088 349,383.5C 353.251,376.416 358.417,370.083 364.5,364.5C 369.107,368.041 371.941,372.707 373,378.5C 374.333,379.833 375.667,381.167 377,382.5C 376.186,391.702 379.352,399.202 386.5,405C 390.111,406.254 391.611,405.088 391,401.5C 388.601,399.589 388.434,397.922 390.5,396.5C 404.439,403.529 414.439,399.863 420.5,385.5C 416.59,385.263 412.923,386.096 409.5,388C 397.468,389.317 389.801,384.15 386.5,372.5C 385.264,373.246 383.93,373.579 382.5,373.5C 383.472,372.601 384.138,371.434 384.5,370C 382.598,363.574 381.431,357.074 381,350.5C 389.922,339.656 397.589,327.989 404,315.5C 405.378,311.102 404.212,307.602 400.5,305C 390.01,300.337 379.343,296.171 368.5,292.5C 382.945,286.639 397.945,283.139 413.5,282C 416.795,280.015 420.129,278.015 423.5,276C 444.833,269.667 466.167,263.333 487.5,257C 490.993,255.522 491.326,253.522 488.5,251C 464.824,255.252 441.49,261.086 418.5,268.5C 416.25,267.541 413.916,266.875 411.5,266.5C 407.207,267.656 402.874,268.656 398.5,269.5C 394.649,268.336 390.983,266.669 387.5,264.5C 384.712,269.369 382.212,274.369 380,279.5C 381.461,273.262 383.461,267.262 386,261.5C 381.432,259.22 377.432,256.22 374,252.5C 371.842,253.451 369.675,253.951 367.5,254C 370.97,250.257 370.804,246.423 367,242.5C 365.003,246.024 362.503,248.358 359.5,249.5C 361.149,247.35 362.982,245.35 365,243.5C 364.883,233.17 364.883,222.837 365,212.5C 365.333,212.167 365.667,211.833 366,211.5C 367.777,213.79 369.944,215.457 372.5,216.5C 374.489,217.887 376.322,217.553 378,215.5C 378.78,213.613 378.613,211.946 377.5,210.5C 375.736,205.223 372.57,200.889 368,197.5C 367.341,194.647 368.508,192.98 371.5,192.5C 375.387,194.026 379.22,195.693 383,197.5C 383.5,197.167 384,196.833 384.5,196.5C 371.504,189.092 370.504,180.592 381.5,171C 383.167,170.667 384.833,170.333 386.5,170C 381.703,168.75 381.37,166.917 385.5,164.5C 386.086,164.709 386.586,165.043 387,165.5C 387.667,168.5 387.667,171.5 387,174.5C 386.581,173.328 385.915,172.328 385,171.5C 384.833,172 384.667,172.5 384.5,173C 386.312,176.126 387.979,179.292 389.5,182.5C 388.167,183.167 386.833,183.833 385.5,184.5C 384.156,186.185 384.323,187.852 386,189.5C 387.707,187.963 389.207,186.296 390.5,184.5C 391.11,183.609 391.443,182.609 391.5,181.5C 400.866,176.982 410.2,172.148 419.5,167C 425.133,163.7 429.8,159.366 433.5,154C 433.355,153.228 433.022,152.561 432.5,152C 424.833,151.333 417.167,151.333 409.5,152C 400.831,153.834 392.164,155.667 383.5,157.5C 382.833,157.5 382.5,157.167 382.5,156.5C 384.303,155.954 385.97,155.12 387.5,154C 385.317,151.65 382.984,149.483 380.5,147.5C 379.614,148.325 379.281,149.325 379.5,150.5C 373.29,150.419 367.29,151.252 361.5,153C 366.55,150.206 371.884,148.206 377.5,147C 370.043,138.441 361.043,132.108 350.5,128C 341.039,124.957 331.539,122.123 322,119.5C 316.198,120.626 311.365,123.459 307.5,128C 313.167,127 318.833,126 324.5,125C 328.613,132.446 334.613,137.779 342.5,141C 344.102,142.935 345.269,145.101 346,147.5C 346.271,152.53 346.771,157.53 347.5,162.5C 347.167,163.167 346.833,163.833 346.5,164.5C 340.744,167.109 334.744,167.942 328.5,167C 323.095,160.924 317.095,155.591 310.5,151C 308.091,150.065 305.591,149.565 303,149.5C 294.642,151.81 286.142,152.643 277.5,152C 275.241,150.285 273.074,148.452 271,146.5C 272.174,152.363 275.674,156.53 281.5,159C 289.909,159.093 298.243,159.76 306.5,161C 310.982,164.441 314.149,168.608 316,173.5C 312.685,170.176 308.685,168.176 304,167.5C 300.149,169.174 296.316,171.008 292.5,173C 286.012,173.834 279.679,173.168 273.5,171C 267.732,169.775 262.399,170.775 257.5,174C 253.452,178.38 249.785,183.046 246.5,188C 247.5,188.667 248.5,188.667 249.5,188C 255.536,183.652 262.202,181.985 269.5,183C 276.577,187.537 283.91,191.537 291.5,195C 289.447,195.325 287.447,194.991 285.5,194C 279.798,190.801 273.798,188.801 267.5,188C 273.17,190.182 278.17,193.349 282.5,197.5C 278.495,198.438 274.495,198.605 270.5,198C 277.053,204.946 285.053,207.946 294.5,207C 299.396,204.635 304.229,202.135 309,199.5C 309.5,199.667 310,199.833 310.5,200C 308.291,202.378 305.958,204.545 303.5,206.5C 304.167,206.833 304.833,207.167 305.5,207.5C 310.951,205.441 315.951,202.941 320.5,200C 303.999,213.833 284.999,221.166 263.5,222C 256.833,219.333 250.167,216.667 243.5,214C 231.063,211.195 219.063,212.528 207.5,218C 203.5,218.667 199.5,218.667 195.5,218C 189.911,215.401 184.577,212.401 179.5,209C 169.511,208.177 159.511,207.51 149.5,207C 145.767,206.934 142.267,206.101 139,204.5C 139.606,207.46 141.439,209.627 144.5,211C 155.857,216.423 167.524,221.09 179.5,225C 183.674,227.588 188.007,229.921 192.5,232C 189.43,231.985 186.43,231.318 183.5,230C 175.61,228.112 169.277,230.445 164.5,237C 174.925,236.205 183.592,239.872 190.5,248C 198.315,252.583 206.649,253.75 215.5,251.5C 219.807,250.809 223.307,252.143 226,255.5C 226.684,256.784 226.517,257.951 225.5,259C 219.821,259.198 214.155,259.198 208.5,259C 224.787,269.196 242.121,271.862 260.5,267C 265.779,265.027 270.779,262.527 275.5,259.5C 276.521,260.002 276.688,260.668 276,261.5C 267.933,269.634 263.1,279.301 261.5,290.5C 244.84,289.667 228.173,288.834 211.5,288C 197.063,285.677 182.563,283.844 168,282.5C 164.833,282.667 161.667,282.833 158.5,283C 141.833,286.333 125.167,289.667 108.5,293C 113.552,294.128 118.552,295.462 123.5,297C 133.916,303.069 144.583,308.736 155.5,314C 170.476,321.406 186.143,323.406 202.5,320C 223.06,315.111 243.393,309.778 263.5,304C 266.167,307 268.833,310 271.5,313C 263.782,319.529 255.115,324.529 245.5,328C 234.991,332.28 224.325,335.947 213.5,339C 235.354,343.127 257.187,347.293 279,351.5C 280.257,351.85 280.591,352.517 280,353.5C 277.502,355.417 274.835,357.084 272,358.5C 272.053,361.613 270.886,364.113 268.5,366C 257.342,370.663 246.009,374.83 234.5,378.5C 230.916,376.031 226.916,375.031 222.5,375.5C 222.663,377.857 222.497,380.19 222,382.5C 220.167,379.333 217.667,376.833 214.5,375C 207.065,371.913 199.399,369.579 191.5,368C 185.49,365.483 180.157,361.983 175.5,357.5C 180.074,366.853 187.741,373.019 198.5,376C 190.536,377.098 182.536,377.598 174.5,377.5C 172.372,376.371 170.039,376.204 167.5,377C 168.044,377.717 168.711,378.217 169.5,378.5C 170.043,378.56 170.376,378.893 170.5,379.5C 166.688,380.097 163.022,381.097 159.5,382.5C 167.472,383.498 175.472,383.831 183.5,383.5C 184.492,383.328 185.158,383.662 185.5,384.5C 167.022,388.024 148.689,392.191 130.5,397C 138.805,398.141 147.138,399.141 155.5,400C 148.452,401.614 141.452,403.614 134.5,406C 140.154,405.558 145.82,405.225 151.5,405C 148.167,407 144.833,409 141.5,411C 140.304,411.654 140.304,412.154 141.5,412.5C 146.345,410.536 151.345,409.703 156.5,410C 153.833,411.333 151.167,412.667 148.5,414C 149,414.167 149.5,414.333 150,414.5C 157.151,412.254 164.317,410.421 171.5,409C 167.159,412.172 162.492,414.839 157.5,417C 156.304,417.654 156.304,418.154 157.5,418.5C 172.954,411.607 188.287,404.44 203.5,397C 205.447,396.009 207.447,395.675 209.5,396C 189.837,406 169.837,415.167 149.5,423.5C 149.833,422.833 150.167,422.167 150.5,421.5C 146.024,422.657 142.358,424.99 139.5,428.5C 139.024,430.066 138.357,430.4 137.5,429.5C 138.022,428.393 138.355,427.226 138.5,426C 137.478,423.83 136.478,421.664 135.5,419.5C 132.213,418.736 129.546,416.903 127.5,414C 126.5,413.667 125.5,413.333 124.5,413C 106.768,395.702 95.7681,374.869 91.5,350.5C 88.6819,351.97 85.6819,352.97 82.5,353.5C 82.0573,349.471 83.8906,347.471 88,347.5C 88.1667,345.167 88.3333,342.833 88.5,340.5C 83.8959,318.449 82.0625,296.116 83,273.5C 84.1097,271.603 84.2764,269.77 83.5,268C 84.8333,264 87.5,261.333 91.5,260C 89.8659,259.506 88.1992,259.34 86.5,259.5C 86.2865,257.856 86.6198,256.356 87.5,255C 83.3067,241.19 85.4734,228.357 94,216.5C 94.9949,212.855 95.8283,209.188 96.5,205.5C 93.1667,205.5 89.8333,205.5 86.5,205.5C 86.5,206.5 86.5,207.5 86.5,208.5C 83.7693,207.393 80.936,206.393 78,205.5C 75.4514,206.519 72.9514,206.519 70.5,205.5C 65.3463,196.591 57.6797,193.091 47.5,195C 42.2967,196.455 37.2967,198.121 32.5,200C 46.249,188.71 59.9156,188.71 73.5,200C 80.2673,200.126 86.934,200.959 93.5,202.5C 94.1667,202.167 94.8333,201.833 95.5,201.5C 95.9818,195.372 97.1485,189.372 99,183.5C 102.773,176.288 106.273,168.955 109.5,161.5C 113.434,154.633 118.101,148.3 123.5,142.5C 121.833,141.5 120.5,140.167 119.5,138.5C 120.922,137.453 122.422,137.453 124,138.5C 125.523,136.234 127.689,135.067 130.5,135C 134.029,130.131 137.196,124.964 140,119.5C 142.357,116.909 145.191,115.242 148.5,114.5C 148.343,113.127 148.51,111.793 149,110.5C 151.963,108.539 154.629,106.206 157,103.5C 157.56,100.04 156.06,97.8733 152.5,97C 147.5,96.6667 142.5,96.3333 137.5,96C 144.952,94.014 152.452,94.1807 160,96.5C 163.564,95.9207 167.064,95.0873 170.5,94C 171.574,93.2613 172.241,92.2613 172.5,91C 170.987,89.1208 170.321,86.9541 170.5,84.5C 171.675,84.281 172.675,84.6143 173.5,85.5C 172.494,86.3957 172.494,87.0623 173.5,87.5C 183.583,80.6139 193.917,73.9472 204.5,67.5C 210.001,65.207 215.668,63.3736 221.5,62C 226.717,59.2077 232.05,56.7077 237.5,54.5C 238.478,54.9767 239.311,55.6433 240,56.5C 241.218,54.9808 242.718,53.8141 244.5,53C 273.249,42.7864 303.583,38.7864 335.5,41C 337.433,41.2511 339.266,41.7511 341,42.5C 345.522,39.6881 349.855,40.0214 354,43.5C 355.4,42.8841 356.9,42.5507 358.5,42.5C 372.086,44.3771 385.086,48.3771 397.5,54.5C 401.842,55.2971 406.176,56.1305 410.5,57C 415.81,60.1059 421.477,62.4392 427.5,64C 428.337,65.0113 428.67,66.1779 428.5,67.5C 431.897,68.3744 435.23,69.5411 438.5,71C 439.167,72.3333 439.833,73.6667 440.5,75C 442.808,76.1097 445.141,76.6097 447.5,76.5C 449.472,77.3052 450.972,78.6385 452,80.5C 455.701,79.2692 458.201,80.6025 459.5,84.5C 461.078,85.2978 462.744,85.7978 464.5,86C 473.008,95.1861 482.008,103.519 491.5,111C 506.106,127.273 518.772,144.94 529.5,164C 538.806,161.887 548.14,159.554 557.5,157C 567.962,155.99 578.295,156.657 588.5,159C 580.167,159.333 571.833,159.667 563.5,160C 559.619,160.607 556.286,162.274 553.5,165C 546.479,164.056 539.479,164.389 532.5,166C 529.913,167.525 529.08,169.692 530,172.5C 532.745,178.74 535.078,185.073 537,191.5C 539.305,195.761 541.971,199.761 545,203.5C 546.703,210.426 548.037,217.426 549,224.5C 551.944,226.372 553.111,229.039 552.5,232.5C 546.947,232.025 546.113,233.692 550,237.5C 550.533,252.005 550.367,266.505 549.5,281C 549.833,285.5 550.167,290 550.5,294.5C 551.086,294.291 551.586,293.957 552,293.5C 554.131,296.102 555.965,298.768 557.5,301.5C 554.27,301.561 552.437,303.228 552,306.5C 551.995,303.771 550.829,301.771 548.5,300.5C 547.624,313.329 546.457,326.329 545,339.5C 543.383,340.536 543.216,341.703 544.5,343C 542.639,344.028 541.305,345.528 540.5,347.5C 541.52,349.432 541.687,351.432 541,353.5C 537.875,358.747 536.208,364.414 536,370.5C 534.294,371.308 533.461,372.641 533.5,374.5C 530.513,374.422 529.847,375.589 531.5,378C 529.862,381.442 528.362,384.942 527,388.5C 524.486,389.089 522.486,390.422 521,392.5C 519.542,397.452 518.209,402.452 517,407.5C 516.215,409.286 515.049,410.786 513.5,412C 519.864,410.097 526.198,407.764 532.5,405C 545.002,403.364 557.002,400.031 568.5,395C 580.096,392.161 591.763,391.828 603.5,394C 593.637,395.265 583.637,396.265 573.5,397C 567.678,398.245 562.345,400.578 557.5,404C 542.994,405.229 528.994,408.563 515.5,414C 513.866,414.494 512.199,414.66 510.5,414.5C 510.5,415.5 510.5,416.5 510.5,417.5C 508.409,417.318 506.409,417.652 504.5,418.5C 502.529,421.236 501.029,424.236 500,427.5C 495.017,429.66 491.684,433.327 490,438.5C 485.463,443.699 480.963,448.865 476.5,454C 472.639,452.714 469.639,453.714 467.5,457C 459.933,459.063 454.267,463.563 450.5,470.5 Z"/></g>
<g><path style="opacity:1" fill="#504966" d="M 149.5,45.5 C 153.35,45.7007 154.35,47.5341 152.5,51C 148.537,51.1177 147.537,49.2843 149.5,45.5 Z"/></g>
<g><path style="opacity:1" fill="#564a64" d="M 211.5,51.5 C 212.586,51.62 213.253,52.2867 213.5,53.5C 212.696,55.9573 211.696,55.9573 210.5,53.5C 210.863,52.8165 211.196,52.1499 211.5,51.5 Z"/></g>
<g><path style="opacity:1" fill="#4b4967" d="M 437.5,60.5 C 438.833,60.5 440.167,60.5 441.5,60.5C 441.5,61.5 441.5,62.5 441.5,63.5C 439.712,63.7852 438.045,63.4519 436.5,62.5C 436.863,61.8165 437.196,61.1499 437.5,60.5 Z"/></g>
<g><path style="opacity:1" fill="#494967" d="M 171.5,63.5 C 174.101,64.9225 173.934,66.2558 171,67.5C 170.5,67.1667 170,66.8333 169.5,66.5C 170.193,65.4822 170.859,64.4822 171.5,63.5 Z"/></g>
<g><path style="opacity:1" fill="#574a65" d="M 32.5,66.5 C 35.4701,66.7458 36.8034,68.4124 36.5,71.5C 33.0897,71.6162 31.7564,69.9496 32.5,66.5 Z"/></g>
<g><path style="opacity:1" fill="#6c4d5f" d="M 109.5,66.5 C 111.722,66.5587 112.722,67.7253 112.5,70C 112.375,71.6268 111.875,73.1268 111,74.5C 110.803,72.1391 109.636,70.4724 107.5,69.5C 108.193,68.4822 108.859,67.4822 109.5,66.5 Z"/></g>
<g><path style="opacity:1" fill="#544a65" d="M 465.5,68.5 C 476.172,68.3335 486.839,68.5002 497.5,69C 505.109,69.4765 511.776,72.1432 517.5,77C 510.546,74.9738 503.379,73.4738 496,72.5C 492.857,72.5745 489.857,73.2412 487,74.5C 479.583,70.5303 471.749,69.5303 463.5,71.5C 462.833,71.3333 462.167,71.1667 461.5,71C 463.066,70.3918 464.4,69.5585 465.5,68.5 Z"/></g>
<g><path style="opacity:1" fill="#4c4967" d="M 591.5,80.5 C 597.555,79.9421 598.888,82.1088 595.5,87C 590.81,87.1412 589.477,84.9746 591.5,80.5 Z"/></g>
<g><path style="opacity:1" fill="#bd5946" d="M 384.5,83.5 C 386.42,82.0595 388.087,82.3929 389.5,84.5C 387.603,85.6518 385.936,85.3185 384.5,83.5 Z"/></g>
<g><path style="opacity:1" fill="#534a65" d="M 65.5,94.5 C 69.6772,93.8416 71.1772,95.5082 70,99.5C 67.2041,101.983 65.0374,101.317 63.5,97.5C 64.1925,96.4822 64.8592,95.4822 65.5,94.5 Z"/></g>
<g><path style="opacity:1" fill="#c85a44" d="M 364.5,106.5 C 366.337,106.639 366.67,107.306 365.5,108.5C 364.702,108.043 364.369,107.376 364.5,106.5 Z"/></g>
<g><path style="opacity:1" fill="#5b4b63" d="M 509.5,107.5 C 511.176,108.183 511.843,109.517 511.5,111.5C 510.5,111.5 509.5,111.5 508.5,111.5C 508.433,110.041 508.766,108.708 509.5,107.5 Z"/></g>
<g><path style="opacity:1" fill="#de5d3d" d="M 424.5,110.5 C 425.077,109.227 425.743,109.227 426.5,110.5C 426.03,111.463 425.363,111.463 424.5,110.5 Z"/></g>
<g><path style="opacity:1" fill="#cb5b42" d="M 436.5,111.5 C 438.196,111.685 439.529,112.519 440.5,114C 438.386,114.442 437.052,113.609 436.5,111.5 Z"/></g>
<g><path style="opacity:1" fill="#d15c41" d="M 209.5,111.5 C 210.239,111.369 210.906,111.536 211.5,112C 208.872,115.673 205.538,118.006 201.5,119C 204.432,116.715 207.098,114.215 209.5,111.5 Z"/></g>
<g><path style="opacity:1" fill="#5a4b64" d="M 561.5,120.5 C 564.216,120.678 566.883,121.178 569.5,122C 570.308,124.088 571.308,126.088 572.5,128C 569.747,126.228 566.581,125.061 563,124.5C 557.891,125.986 553.057,127.82 548.5,130C 552.15,125.847 556.483,122.68 561.5,120.5 Z"/></g>
<g><path style="opacity:1" fill="#624c61" d="M 526.5,122.5 C 530.161,122.426 530.828,123.426 528.5,125.5C 527.081,124.995 526.415,123.995 526.5,122.5 Z"/></g>
<g><path style="opacity:1" fill="#634c61" d="M 90.5,126.5 C 93.2748,126.834 93.9415,128.167 92.5,130.5C 90.8888,129.68 90.2222,128.346 90.5,126.5 Z"/></g>
<g><path style="opacity:1" fill="#534a65" d="M 40.5,137.5 C 42.0938,138.983 43.7605,140.483 45.5,142C 43.6217,143.543 42.1217,145.376 41,147.5C 40.4837,144.966 39.317,142.8 37.5,141C 39.4257,140.578 40.4257,139.411 40.5,137.5 Z"/></g>
<g><path style="opacity:1" fill="#c05945" d="M 270.5,137.5 C 272.09,137.628 273.423,138.295 274.5,139.5C 272.5,140.833 270.5,140.833 268.5,139.5C 269.243,138.818 269.909,138.151 270.5,137.5 Z"/></g>
<g><path style="opacity:1" fill="#4b4967" d="M 79.5,141.5 C 80.675,141.281 81.675,141.614 82.5,142.5C 80.9483,143.798 79.9483,143.465 79.5,141.5 Z"/></g>
<g><path style="opacity:1" fill="#cf5b41" d="M 269.5,141.5 C 271.379,141.393 271.712,141.893 270.5,143C 267.125,143.632 266.791,143.132 269.5,141.5 Z"/></g>
<g><path style="opacity:1" fill="#f06037" d="M 415.5,145.5 C 417.429,145.231 419.095,145.731 420.5,147C 419.667,147.167 418.833,147.333 418,147.5C 416.624,147.316 415.791,146.649 415.5,145.5 Z"/></g>
<g><path style="opacity:1" fill="#694d5f" d="M 382.5,156.5 C 382.5,157.167 382.833,157.5 383.5,157.5C 368.854,163.103 353.854,167.603 338.5,171C 353.142,166.064 367.809,161.23 382.5,156.5 Z"/></g>
<g><path style="opacity:1" fill="#684d5f" d="M 82.5,167.5 C 84.7602,168.238 84.9269,169.238 83,170.5C 81.2716,169.648 81.105,168.648 82.5,167.5 Z"/></g>
<g><path style="opacity:1" fill="#7a4f5a" d="M 260.5,175.5 C 265.564,175.698 265.397,176.365 260,177.5C 259.5,177.333 259,177.167 258.5,177C 259.416,176.722 260.082,176.222 260.5,175.5 Z"/></g>
<g><path style="opacity:1" fill="#574a64" d="M 327.5,184.5 C 326.833,184.5 326.5,184.167 326.5,183.5C 329.689,181.74 333.022,180.24 336.5,179C 339.634,178.21 342.634,178.543 345.5,180C 339.187,180.385 333.187,181.885 327.5,184.5 Z"/></g>
<g><path style="opacity:1" fill="#5f4b62" d="M 323.5,183.5 C 323.5,184.167 323.167,184.5 322.5,184.5C 315.943,182.448 309.943,183.448 304.5,187.5C 303.707,186.645 304.04,185.811 305.5,185C 307.081,184.293 308.581,183.46 310,182.5C 310.432,181.4 309.932,180.733 308.5,180.5C 303.505,182.33 298.505,184.163 293.5,186C 291.098,186.814 288.765,186.647 286.5,185.5C 294.059,184.587 301.226,182.587 308,179.5C 313.182,180.727 318.349,182.06 323.5,183.5 Z"/></g>
<g><path style="opacity:1" fill="#925352" d="M 391.5,181.5 C 391.443,182.609 391.11,183.609 390.5,184.5C 388.833,184.5 387.167,184.5 385.5,184.5C 386.833,183.833 388.167,183.167 389.5,182.5C 390.167,182.167 390.833,181.833 391.5,181.5 Z"/></g>
<g><path style="opacity:1" fill="#ae574b" d="M 323.5,183.5 C 324.5,183.5 325.5,183.5 326.5,183.5C 326.5,184.167 326.833,184.5 327.5,184.5C 325.833,185.833 324.167,185.833 322.5,184.5C 323.167,184.5 323.5,184.167 323.5,183.5 Z"/></g>
<g><path style="opacity:1" fill="#ec5f39" d="M 385.5,184.5 C 387.167,184.5 388.833,184.5 390.5,184.5C 389.207,186.296 387.707,187.963 386,189.5C 384.323,187.852 384.156,186.185 385.5,184.5 Z"/></g>
<g><path style="opacity:1" fill="#724e5c" d="M 363.5,197.5 C 360.875,195.397 359.375,192.73 359,189.5C 361.157,191.817 362.657,194.484 363.5,197.5 Z"/></g>
<g><path style="opacity:1" fill="#4b4967" d="M 558.5,193.5 C 559.833,193.5 561.167,193.5 562.5,193.5C 562.5,194.833 562.5,196.167 562.5,197.5C 561.167,197.5 559.833,197.5 558.5,197.5C 558.5,196.167 558.5,194.833 558.5,193.5 Z"/></g>
<g><path style="opacity:1" fill="#f06037" d="M 224.5,195.5 C 226.465,195.948 226.798,196.948 225.5,198.5C 224.614,197.675 224.281,196.675 224.5,195.5 Z"/></g>
<g><path style="opacity:1" fill="#925352" d="M 363.5,197.5 C 365.085,198.002 365.585,199.002 365,200.5C 363.961,199.756 363.461,198.756 363.5,197.5 Z"/></g>
<g><path style="opacity:1" fill="#6e4d5e" d="M 294.5,200.5 C 295.552,200.351 296.552,200.517 297.5,201C 294.436,202.932 291.102,203.599 287.5,203C 290.004,202.302 292.337,201.469 294.5,200.5 Z"/></g>
<g><path style="opacity:1" fill="#d85d3f" d="M 255.5,203.5 C 258.116,204.48 260.449,205.98 262.5,208C 258.862,208.515 256.529,207.015 255.5,203.5 Z"/></g>
<g><path style="opacity:1" fill="#4c4967" d="M 377.5,210.5 C 377.313,213.69 375.646,215.69 372.5,216.5C 369.908,213.087 369.908,209.753 372.5,206.5C 374.186,207.857 375.852,209.19 377.5,210.5 Z"/></g>
<g><path style="opacity:1" fill="#f36036" d="M 416.5,207.5 C 418.337,207.639 418.67,208.306 417.5,209.5C 416.702,209.043 416.369,208.376 416.5,207.5 Z"/></g>
<g><path style="opacity:1" fill="#e95f39" d="M 192.5,210.5 C 193.675,210.281 194.675,210.614 195.5,211.5C 193.948,212.798 192.948,212.465 192.5,210.5 Z"/></g>
<g><path style="opacity:1" fill="#674c60" d="M 346.5,192.5 C 350.146,197.781 353.313,203.448 356,209.5C 358.133,210.418 360.3,210.584 362.5,210C 360.627,212.622 358.293,213.456 355.5,212.5C 352.107,205.977 349.107,199.31 346.5,192.5 Z"/></g>
<g><path style="opacity:1" fill="#d65d3f" d="M 377.5,210.5 C 378.613,211.946 378.78,213.613 378,215.5C 376.322,217.553 374.489,217.887 372.5,216.5C 375.646,215.69 377.313,213.69 377.5,210.5 Z"/></g>
<g><path style="opacity:1" fill="#e25e3b" d="M 415.5,215.5 C 416.675,215.281 417.675,215.614 418.5,216.5C 416.948,217.798 415.948,217.465 415.5,215.5 Z"/></g>
<g><path style="opacity:1" fill="#965452" d="M 337.5,217.5 C 338.002,215.915 339.002,215.415 340.5,216C 339.756,217.039 338.756,217.539 337.5,217.5 Z"/></g>
<g><path style="opacity:1" fill="#5c4b63" d="M 337.5,217.5 C 330.522,222.992 323.188,227.992 315.5,232.5C 321.785,226.02 329.118,221.02 337.5,217.5 Z"/></g>
<g><path style="opacity:1" fill="#5d4b62" d="M 228.5,223.5 C 237.782,222.062 246.782,223.562 255.5,228C 246.559,226.447 237.559,224.947 228.5,223.5 Z"/></g>
<g><path style="opacity:1" fill="#4d4967" d="M 51.5,233.5 C 56.1585,233.015 57.4919,234.848 55.5,239C 50.7282,239.81 49.3948,237.977 51.5,233.5 Z"/></g>
<g><path style="opacity:1" fill="#504966" d="M 315.5,232.5 C 312.857,235.234 311.857,238.567 312.5,242.5C 312.5,243.167 312.167,243.5 311.5,243.5C 311.522,239.564 310.522,235.897 308.5,232.5C 310.46,233.603 312.793,233.603 315.5,232.5 Z"/></g>
<g><path style="opacity:1" fill="#6f4e5d" d="M 353.5,244.5 C 356.734,240.025 358.901,235.025 360,229.5C 360.559,235.712 358.392,240.712 353.5,244.5 Z"/></g>
<g><path style="opacity:1" fill="#805058" d="M 40.5,238.5 C 47.8222,238.232 48.1555,239.065 41.5,241C 37.1667,241.667 32.8333,241.667 28.5,241C 32.6993,240.472 36.6993,239.639 40.5,238.5 Z"/></g>
<g><path style="opacity:1" fill="#664c60" d="M 271.5,235.5 C 273.379,235.393 273.712,235.893 272.5,237C 263.916,241.747 254.916,245.08 245.5,247C 254.374,243.391 263.041,239.558 271.5,235.5 Z"/></g>
<g><path style="opacity:1" fill="#704e5d" d="M 353.5,244.5 C 351.711,247.815 349.045,249.649 345.5,250C 348.065,247.92 350.732,246.087 353.5,244.5 Z"/></g>
<g><path style="opacity:1" fill="#845157" d="M 312.5,242.5 C 313.908,247.434 313.741,252.434 312,257.5C 311.501,252.845 311.334,248.179 311.5,243.5C 312.167,243.5 312.5,243.167 312.5,242.5 Z"/></g>
<g><path style="opacity:1" fill="#564a64" d="M 300.5,249.5 C 302.017,249.511 303.184,250.177 304,251.5C 304.794,254.471 305.461,257.471 306,260.5C 313.363,262.229 313.196,263.229 305.5,263.5C 305.413,268.537 305.746,273.537 306.5,278.5C 304.181,279.167 301.847,279.334 299.5,279C 301.081,278.293 302.581,277.46 304,276.5C 304.738,272.739 304.405,269.072 303,265.5C 289.373,264.873 289.207,263.539 302.5,261.5C 302.256,258.737 300.923,256.571 298.5,255C 300.192,253.599 300.859,251.766 300.5,249.5 Z"/></g>
<g><path style="opacity:1" fill="#5a4b64" d="M 594.5,247.5 C 595.234,248.878 595.901,250.378 596.5,252C 598.5,252.333 600.5,252.667 602.5,253C 598.667,254.167 596.167,256.667 595,260.5C 594.418,256.749 592.251,255.082 588.5,255.5C 588.5,254.5 588.5,253.5 588.5,252.5C 592.314,253.019 594.314,251.353 594.5,247.5 Z"/></g>
<g><path style="opacity:1" fill="#5d4b62" d="M 371.5,256.5 C 374.226,256.264 376.559,257.097 378.5,259C 376.5,259.667 374.5,259.667 372.5,259C 371.748,258.329 371.414,257.496 371.5,256.5 Z"/></g>
<g><path style="opacity:1" fill="#584b64" d="M 318.5,255.5 C 324.116,256.113 329.449,258.279 334.5,262C 328.788,260.925 323.454,258.759 318.5,255.5 Z"/></g>
<g><path style="opacity:1" fill="#474868" d="M 344.5,257.5 C 353.486,265.484 362.486,273.484 371.5,281.5C 366.816,283.547 361.983,285.214 357,286.5C 347.747,282.966 340.914,276.799 336.5,268C 338.601,264.066 341.268,260.566 344.5,257.5 Z"/></g>
<g><path style="opacity:1" fill="#855156" d="M 286.5,258.5 C 288.099,259.799 288.599,261.465 288,263.5C 286.991,261.975 286.491,260.308 286.5,258.5 Z"/></g>
<g><path style="opacity:1" fill="#4e4966" d="M 386.5,274.5 C 394.186,274.767 394.353,275.767 387,277.5C 386.167,277.333 385.333,277.167 384.5,277C 385.381,276.292 386.047,275.458 386.5,274.5 Z"/></g>
<g><path style="opacity:1" fill="#865156" d="M 331.5,269.5 C 333.886,272.829 335.386,276.496 336,280.5C 333.815,277.113 332.315,273.446 331.5,269.5 Z"/></g>
<g><path style="opacity:1" fill="#594b64" d="M 305.5,281.5 C 308.441,286.249 312.274,290.249 317,293.5C 317.667,294.167 317.667,294.833 317,295.5C 313.484,293.074 310.151,290.407 307,287.5C 306.187,285.564 305.687,283.564 305.5,281.5 Z"/></g>
<g><path style="opacity:1" fill="#684d60" d="M 339.5,281.5 C 341.735,282.248 341.402,283.081 338.5,284C 331.843,286.445 325.177,288.445 318.5,290C 325.457,286.853 332.457,284.019 339.5,281.5 Z"/></g>
<g><path style="opacity:1" fill="#604b62" d="M 66.5,291.5 C 69.7756,292.122 71.1089,294.122 70.5,297.5C 65.7398,297.799 64.4064,295.799 66.5,291.5 Z"/></g>
<g><path style="opacity:1" fill="#684d60" d="M 293.5,288.5 C 294.873,288.343 296.207,288.51 297.5,289C 279.183,295.246 260.516,299.913 241.5,303C 259.022,298.431 276.355,293.598 293.5,288.5 Z"/></g>
<g><path style="opacity:1" fill="#634c61" d="M 338.5,295.5 C 339.873,295.343 341.207,295.51 342.5,296C 334.81,299.897 326.81,302.563 318.5,304C 325.39,301.434 332.057,298.601 338.5,295.5 Z"/></g>
<g><path style="opacity:1" fill="#885256" d="M 170.5,300.5 C 175.179,300.334 179.845,300.501 184.5,301C 178.224,302.424 171.891,302.758 165.5,302C 167.382,301.802 169.048,301.302 170.5,300.5 Z"/></g>
<g><path style="opacity:1" fill="#734e5c" d="M 215.5,306.5 C 217.527,306.338 219.527,306.505 221.5,307C 209.711,310.359 197.711,312.026 185.5,312C 195.66,310.486 205.66,308.652 215.5,306.5 Z"/></g>
<g><path style="opacity:1" fill="#534a65" d="M 39.5,316.5 C 41.288,316.215 42.9547,316.548 44.5,317.5C 43.3315,319.217 41.6648,319.884 39.5,319.5C 39.5,318.5 39.5,317.5 39.5,316.5 Z"/></g>
<g><path style="opacity:1" fill="#654c60" d="M 56.5,322.5 C 58.4646,322.948 58.7979,323.948 57.5,325.5C 55.4807,324.867 55.1474,323.867 56.5,322.5 Z"/></g>
<g><path style="opacity:1" fill="#784f5a" d="M 312.5,327.5 C 313.002,325.915 314.002,325.415 315.5,326C 314.756,327.039 313.756,327.539 312.5,327.5 Z"/></g>
<g><path style="opacity:1" fill="#bd5946" d="M 187.5,330.5 C 189.337,330.639 189.67,331.306 188.5,332.5C 187.702,332.043 187.369,331.376 187.5,330.5 Z"/></g>
<g><path style="opacity:1" fill="#4d4967" d="M 592.5,331.5 C 595.701,332.839 596.035,334.506 593.5,336.5C 591.296,335.218 590.962,333.551 592.5,331.5 Z"/></g>
<g><path style="opacity:1" fill="#694d5f" d="M 372.5,348.5 C 380.144,338.008 387.644,327.341 395,316.5C 394.005,320.877 392.005,324.877 389,328.5C 383.72,335.421 378.22,342.088 372.5,348.5 Z"/></g>
<g><path style="opacity:1" fill="#5e4b62" d="M 312.5,327.5 C 304.086,334.206 294.753,339.04 284.5,342C 293.73,336.886 303.063,332.052 312.5,327.5 Z"/></g>
<g><path style="opacity:1" fill="#5c4b63" d="M 364.5,339.5 C 362.596,339.738 361.262,340.738 360.5,342.5C 346.566,354.098 333.232,366.431 320.5,379.5C 320.5,378.833 320.167,378.5 319.5,378.5C 337.258,360.372 355.758,343.038 375,326.5C 375.667,327.167 375.667,327.833 375,328.5C 371.296,332.036 367.796,335.702 364.5,339.5 Z"/></g>
<g><path style="opacity:1" fill="#b95848" d="M 204.5,341.5 C 202.456,340.969 200.789,339.802 199.5,338C 201.772,338.077 203.438,339.243 204.5,341.5 Z"/></g>
<g><path style="opacity:1" fill="#5e4b62" d="M 351.5,323.5 C 353.842,323.775 353.842,324.608 351.5,326C 332.987,339.758 314.653,353.758 296.5,368C 294.945,369.289 293.279,369.956 291.5,370C 311.388,354.238 331.388,338.738 351.5,323.5 Z"/></g>
<g><path style="opacity:1" fill="#ae574b" d="M 204.5,341.5 C 206.196,341.685 207.529,342.519 208.5,344C 206.588,344.279 205.254,343.446 204.5,341.5 Z"/></g>
<g><path style="opacity:1" fill="#9c5450" d="M 364.5,339.5 C 363.396,341.389 362.063,343.055 360.5,344.5C 360.5,343.833 360.5,343.167 360.5,342.5C 361.262,340.738 362.596,339.738 364.5,339.5 Z"/></g>
<g><path style="opacity:1" fill="#ed5f38" d="M 360.5,342.5 C 360.5,343.167 360.5,343.833 360.5,344.5C 358.413,345.585 357.08,347.251 356.5,349.5C 347.771,360.398 338.438,370.898 328.5,381C 327.167,381.167 325.833,381.333 324.5,381.5C 322.667,381.415 321.334,380.748 320.5,379.5C 333.232,366.431 346.566,354.098 360.5,342.5 Z"/></g>
<g><path style="opacity:1" fill="#835158" d="M 360.5,344.5 C 359.92,346.749 358.587,348.415 356.5,349.5C 357.08,347.251 358.413,345.585 360.5,344.5 Z"/></g>
<g><path style="opacity:1" fill="#845157" d="M 372.5,348.5 C 371.969,350.544 370.802,352.211 369,353.5C 369.077,351.228 370.243,349.562 372.5,348.5 Z"/></g>
<g><path style="opacity:1" fill="#554a65" d="M 579.5,351.5 C 582.041,352.623 582.041,353.956 579.5,355.5C 578.374,354.192 578.374,352.858 579.5,351.5 Z"/></g>
<g><path style="opacity:1" fill="#855157" d="M 546.5,367.5 C 547.995,367.415 548.995,368.081 549.5,369.5C 547.604,370.639 546.604,369.973 546.5,367.5 Z"/></g>
<g><path style="opacity:1" fill="#634c60" d="M 382.5,373.5 C 381.686,375.273 380.352,375.773 378.5,375C 379.745,374.209 381.078,373.709 382.5,373.5 Z"/></g>
<g><path style="opacity:1" fill="#464868" d="M 568.5,374.5 C 569.833,374.5 571.167,374.5 572.5,374.5C 572.884,376.665 572.217,378.332 570.5,379.5C 568.783,378.332 568.116,376.665 568.5,374.5 Z"/></g>
<g><path style="opacity:1" fill="#855157" d="M 174.5,377.5 C 172.585,377.216 170.919,377.549 169.5,378.5C 168.711,378.217 168.044,377.717 167.5,377C 170.039,376.204 172.372,376.371 174.5,377.5 Z"/></g>
<g><path style="opacity:1" fill="#885156" d="M 185.5,384.5 C 185.158,383.662 184.492,383.328 183.5,383.5C 187.323,382.355 191.323,381.855 195.5,382C 192.198,383.026 188.865,383.86 185.5,384.5 Z"/></g>
<g><path style="opacity:1" fill="#754f5b" d="M 228.5,384.5 C 229.933,386.914 230.433,389.581 230,392.5C 228.748,389.986 228.248,387.32 228.5,384.5 Z"/></g>
<g><path style="opacity:1" fill="#774f5b" d="M 197.5,389.5 C 199.199,389.34 200.866,389.506 202.5,390C 193.983,392.964 185.316,394.964 176.5,396C 183.516,393.492 190.516,391.325 197.5,389.5 Z"/></g>
<g><path style="opacity:1" fill="#554a65" d="M 92.5,391.5 C 94.2083,393.718 96.2083,395.884 98.5,398C 96.6217,399.543 95.1217,401.376 94,403.5C 92.6294,400.629 90.4628,398.629 87.5,397.5C 90.6631,396.676 92.3298,394.676 92.5,391.5 Z"/></g>
<g><path style="opacity:1" fill="#855157" d="M 201.5,405.5 C 203.379,405.393 203.712,405.893 202.5,407C 199.281,408.955 195.947,410.288 192.5,411C 195.564,409.141 198.564,407.308 201.5,405.5 Z"/></g>
<g><path style="opacity:1" fill="#5e4b62" d="M 220.5,405.5 C 221.043,405.56 221.376,405.893 221.5,406.5C 205.256,417.616 188.256,427.116 170.5,435C 187.395,425.392 204.061,415.559 220.5,405.5 Z"/></g>
<g><path style="opacity:1" fill="#ba5947" d="M 150.5,421.5 C 151.002,419.915 152.002,419.415 153.5,420C 152.756,421.039 151.756,421.539 150.5,421.5 Z"/></g>
<g><path style="opacity:1" fill="#504966" d="M 169.5,423.5 C 171.199,423.34 172.866,423.506 174.5,424C 169.322,427.422 164.322,431.089 159.5,435C 158.5,435.667 157.5,435.667 156.5,435C 155.624,432.624 153.958,431.124 151.5,430.5C 157.683,428.378 163.683,426.045 169.5,423.5 Z"/></g>
<g><path style="opacity:1" fill="#514966" d="M 73.5,424.5 C 80.9472,424.071 88.2806,424.571 95.5,426C 86.6474,425.927 77.9807,427.094 69.5,429.5C 61.9104,427.407 54.2437,426.907 46.5,428C 48.7885,427.178 51.1218,426.511 53.5,426C 60.346,425.828 67.0126,425.328 73.5,424.5 Z"/></g>
<g><path style="opacity:1" fill="#925354" d="M 150.5,421.5 C 150.167,422.167 149.833,422.833 149.5,423.5C 146.753,426.207 143.42,427.873 139.5,428.5C 142.358,424.99 146.024,422.657 150.5,421.5 Z"/></g>
<g><path style="opacity:1" fill="#8d5254" d="M 180.5,437.5 C 181.525,437.897 181.692,438.563 181,439.5C 179.578,441.638 177.745,442.805 175.5,443C 177.373,441.296 179.04,439.463 180.5,437.5 Z"/></g>
<g><path style="opacity:1" fill="#634c61" d="M 491.5,443.5 C 492.5,443.5 493.5,443.5 494.5,443.5C 494.5,444.833 494.5,446.167 494.5,447.5C 489.941,447.991 488.941,446.658 491.5,443.5 Z"/></g>
<g><path style="opacity:1" fill="#5b4b63" d="M 159.5,452.5 C 162.482,449.247 165.982,446.581 170,444.5C 170.163,446.387 169.329,447.887 167.5,449C 164.929,450.454 162.262,451.62 159.5,452.5 Z"/></g>
<g><path style="opacity:1" fill="#5c4b63" d="M 103.5,451.5 C 106.518,451.335 109.518,451.502 112.5,452C 101.559,456.523 90.5585,460.523 79.5,464C 84.7132,458.703 91.0465,455.703 98.5,455C 99.9555,453.374 101.622,452.208 103.5,451.5 Z"/></g>
<g><path style="opacity:1" fill="#754f5b" d="M 159.5,452.5 C 158.878,453.627 158.045,454.627 157,455.5C 156.481,453.511 157.314,452.511 159.5,452.5 Z"/></g>
<g><path style="opacity:1" fill="#564a65" d="M 558.5,459.5 C 553.833,460.167 549.167,460.833 544.5,461.5C 541.691,462.901 539.357,462.234 537.5,459.5C 544.491,457.097 551.491,457.097 558.5,459.5 Z"/></g>
<g><path style="opacity:1" fill="#8e5254" d="M 558.5,459.5 C 559.289,459.783 559.956,460.283 560.5,461C 555.177,461.499 549.844,461.666 544.5,461.5C 549.167,460.833 553.833,460.167 558.5,459.5 Z"/></g>
<g><path style="opacity:1" fill="#524a66" d="M 138.5,462.5 C 144.293,463.421 145.626,466.255 142.5,471C 135,471.196 133.667,468.363 138.5,462.5 Z"/></g>
<g><path style="opacity:1" fill="#cf5c41" d="M 205.5,472.5 C 206.497,471.287 207.497,471.454 208.5,473C 207.423,473.47 206.423,473.303 205.5,472.5 Z"/></g>
<g><path style="opacity:1" fill="#7a4f5a" d="M 450.5,470.5 C 453.797,470.329 454.131,470.995 451.5,472.5C 450.702,472.043 450.369,471.376 450.5,470.5 Z"/></g>
<g><path style="opacity:1" fill="#dc5d3d" d="M 203.5,477.5 C 208.814,477.239 209.314,477.906 205,479.5C 203.97,479.164 203.47,478.497 203.5,477.5 Z"/></g>
<g><path style="opacity:1" fill="#6a4d5f" d="M 575.5,482.5 C 574.778,481.449 573.778,480.782 572.5,480.5C 582.116,476.428 592.116,473.595 602.5,472C 594.011,474.83 585.511,477.663 577,480.5C 575.97,480.836 575.47,481.503 575.5,482.5 Z"/></g>
<g><path style="opacity:1" fill="#5a4b63" d="M 446.5,478.5 C 447.5,478.5 448.5,478.5 449.5,478.5C 449.833,481.5 448.5,482.833 445.5,482.5C 445.433,481.041 445.766,479.708 446.5,478.5 Z"/></g>
<g><path style="opacity:1" fill="#e45e3b" d="M 247.5,493.5 C 249.185,492.156 250.852,492.323 252.5,494C 250.735,494.64 249.068,494.473 247.5,493.5 Z"/></g>
<g><path style="opacity:1" fill="#9b5452" d="M 441.5,495.5 C 443.983,495.73 444.483,496.397 443,497.5C 441.97,497.164 441.47,496.497 441.5,495.5 Z"/></g>
<g><path style="opacity:1" fill="#a8564c" d="M 391.5,499.5 C 388.941,499.198 386.607,499.532 384.5,500.5C 382.473,500.662 380.473,500.495 378.5,500C 378.833,499.667 379.167,499.333 379.5,499C 383.689,498.188 387.689,498.355 391.5,499.5 Z"/></g>
<g><path style="opacity:1" fill="#4e4966" d="M 405.5,499.5 C 407.048,499.821 407.715,500.821 407.5,502.5C 404.752,502.598 404.086,501.598 405.5,499.5 Z"/></g>
<g><path style="opacity:1" fill="#504966" d="M 180.5,507.5 C 187.877,506.689 194.877,507.856 201.5,511C 206.167,511.333 210.833,511.667 215.5,512C 216.833,512.667 216.833,513.333 215.5,514C 211.311,514.336 207.144,514.836 203,515.5C 190.436,508.773 179.27,510.607 169.5,521C 157.242,524.642 145.242,528.642 133.5,533C 144.778,526.862 156.445,521.528 168.5,517C 171.825,512.826 175.825,509.66 180.5,507.5 Z"/></g>
<g><path style="opacity:1" fill="#584a64" d="M 466.5,509.5 C 467.833,509.5 469.167,509.5 470.5,509.5C 470.5,510.5 470.5,511.5 470.5,512.5C 468.027,512.912 466.694,511.912 466.5,509.5 Z"/></g>
<g><path style="opacity:1" fill="#5c4b63" d="M 307.5,519.5 C 308.586,519.62 309.253,520.287 309.5,521.5C 309.167,522.167 308.833,522.833 308.5,523.5C 307.571,522.311 307.238,520.978 307.5,519.5 Z"/></g>
<g><path style="opacity:1" fill="#5d4b63" d="M 549.5,521.5 C 550.873,521.343 552.207,521.51 553.5,522C 548.027,524.121 542.36,525.787 536.5,527C 521.413,529.581 506.413,532.248 491.5,535C 504.865,528.992 518.865,525.825 533.5,525.5C 538.986,524.275 544.32,522.942 549.5,521.5 Z"/></g>
<g><path style="opacity:1" fill="#cf5b41" d="M 270.5,527.5 C 273.039,528.94 275.373,529.94 277.5,530.5C 273.867,532.317 271.533,531.317 270.5,527.5 Z"/></g>
<g><path style="opacity:1" fill="#e35e3b" d="M 345.5,526.5 C 346.769,530.26 349.436,532.426 353.5,533C 351.212,533.822 348.878,534.489 346.5,535C 341.623,535.894 339.956,535.728 341.5,534.5C 341.351,533.448 341.517,532.448 342,531.5C 343.135,531.273 344.302,530.94 345.5,530.5C 344.975,529.808 344.308,529.308 343.5,529C 344.381,528.292 345.047,527.458 345.5,526.5 Z"/></g>
<g><path style="opacity:1" fill="#9a5451" d="M 307.5,534.5 C 307.611,535.117 307.944,535.617 308.5,536C 307.207,536.49 305.873,536.657 304.5,536.5C 307.125,535.559 307.125,534.393 304.5,533C 305.998,532.415 306.998,532.915 307.5,534.5 Z"/></g>
<g><path style="opacity:1" fill="#5b4b63" d="M 411.5,534.5 C 413.842,534.775 413.842,535.608 411.5,537C 394.633,543.881 377.3,548.881 359.5,552C 377.105,546.632 394.438,540.799 411.5,534.5 Z"/></g>
<g><path style="opacity:1" fill="#584a64" d="M 501.5,550.5 C 503.857,550.337 506.19,550.503 508.5,551C 496.941,553.149 485.607,556.149 474.5,560C 469.133,560.403 463.799,561.07 458.5,562C 432.311,569.715 431.978,568.715 457.5,559C 472.477,557.273 487.143,554.439 501.5,550.5 Z"/></g>
<g><path style="opacity:1" fill="#664c60" d="M 245.5,561.5 C 250.592,561.497 250.592,562.33 245.5,564C 231.575,567.982 217.575,571.315 203.5,574C 217.515,569.501 231.515,565.335 245.5,561.5 Z"/></g>
<g><path style="opacity:1" fill="#6f4e5e" d="M 100.5,574.5 C 101.568,575.434 102.901,575.768 104.5,575.5C 97.6117,577.457 90.6117,579.457 83.5,581.5C 82.3044,581.154 82.3044,580.654 83.5,580C 89.1535,578.06 94.8202,576.226 100.5,574.5 Z"/></g>
<g><path style="opacity:1" fill="#654c60" d="M 182.5,580.5 C 183.873,580.343 185.207,580.51 186.5,581C 167.06,587.442 147.393,592.775 127.5,597C 145.846,591.159 164.179,585.659 182.5,580.5 Z"/></g>
</svg>