<svg xmlns="http://www.w3.org/2000/svg" version="1.0" width="512.000000pt" height="512.000000pt" viewBox="0 0 512.000000 512.000000" preserveAspectRatio="xMidYMid meet">
<metadata>
Created by potrace 1.16, written by Peter Selinger 2001-2019
</metadata>
<g transform="translate(0.000000,512.000000) scale(0.100000,-0.100000)" fill="#000000" stroke="none">
<path d="M0 2560 l0 -2560 2560 0 2560 0 0 2560 0 2560 -2560 0 -2560 0 0 -2560z m1638 2292 c2 -7 -3 -12 -12 -12 -9 0 -16 7 -16 16 0 17 22 14 28 -4z m1379 -8 c-9 -9 -28 6 -21 18 4 6 10 6 17 -1 6 -6 8 -13 4 -17z m634 -4 c4 -3 2 -12 -4 -20 -11 -14 -14 -14 -29 2 -15 15 -15 18 -3 18 8 0 15 8 16 18 0 13 2 14 6 2 3 -8 9 -17 14 -20z m-1571 -20 c0 -11 -7 -20 -15 -20 -8 0 -15 9 -15 20 0 11 7 20 15 20 8 0 15 -9 15 -20z m990 10 c0 -5 -7 -10 -15 -10 -8 0 -15 5 -15 10 0 6 7 10 15 10 8 0 15 -4 15 -10z m-348 -34 c5 -8 8 -7 8 2 0 18 79 16 86 -3 5 -11 10 -13 19 -5 8 7 30 5 69 -5 31 -8 71 -15 87 -15 17 0 28 -4 25 -8 -3 -5 20 -15 51 -22 30 -8 61 -20 68 -27 8 -7 21 -13 30 -13 9 0 14 -4 11 -9 -3 -5 12 -7 35 -5 25 3 38 0 34 -6 -4 -6 1 -7 10 -3 10 3 20 1 24 -4 3 -5 39 -20 79 -32 56 -17 72 -26 68 -37 -3 -9 -2 -12 5 -8 6 3 21 -4 35 -17 13 -12 24 -19 24 -15 0 5 7 3 15 -4 8 -7 13 -15 11 -19 -2 -3 7 -11 20 -18 18 -8 22 -8 17 0 -4 8 -2 8 9 0 8 -7 18 -10 21 -6 4 3 7 1 7 -6 0 -7 5 -9 12 -5 8 5 9 1 4 -12 -5 -14 -4 -16 4 -8 17 17 46 6 59 -24 9 -19 15 -22 20 -13 6 9 28 -7 77 -56 86 -87 114 -119 94 -109 -8 4 -6 0 5 -8 11 -9 25 -14 31 -12 14 5 108 -104 202 -233 34 -47 69 -94 76 -104 8 -10 24 -40 37 -67 l23 -48 54 19 c30 11 68 19 84 19 16 0 43 7 60 16 25 13 54 16 142 12 61 -2 120 -9 131 -16 16 -10 4 -11 -60 -6 -100 8 -193 -8 -212 -36 -11 -16 -18 -18 -33 -10 -24 13 -70 13 -123 -1 -51 -12 -58 -38 -28 -93 11 -19 17 -37 14 -40 -4 -3 -2 -6 3 -6 5 0 10 -10 11 -22 3 -30 24 -78 34 -78 5 0 9 -6 9 -13 0 -8 9 -22 21 -33 13 -12 19 -27 16 -41 -2 -13 -1 -23 4 -23 4 0 6 -11 3 -25 -3 -19 -1 -23 12 -18 14 5 15 0 10 -37 -5 -36 -3 -46 14 -57 11 -8 20 -23 20 -35 0 -16 -5 -19 -24 -16 -19 4 -23 1 -18 -11 3 -9 10 -19 15 -23 6 -3 9 -21 8 -40 -1 -18 -2 -40 -1 -48 3 -78 1 -146 -6 -186 -7 -48 -8 -83 -5 -156 1 -42 17 -51 24 -15 4 19 4 18 6 -5 0 -16 9 -32 21 -38 24 -13 26 -32 3 -28 -11 2 -19 -6 -23 -22 l-7 -25 -8 28 c-4 15 -13 27 -21 27 -9 0 -11 -6 -6 -21 5 -12 5 -49 1 -83 -12 -106 -20 -180 -21 -196 0 -8 -5 -21 -11 -27 -6 -9 -5 -13 4 -14 8 0 4 -4 -8 -9 -23 -9 -32 -40 -13 -40 5 0 2 -17 -7 -37 -9 -21 -21 -51 -28 -66 -7 -16 -11 -39 -9 -53 1 -16 -3 -24 -13 -24 -10 0 -13 -6 -9 -16 4 -12 2 -15 -9 -10 -8 3 -15 1 -15 -4 0 -6 4 -10 9 -10 5 0 -2 -20 -16 -45 -13 -25 -21 -45 -16 -45 4 0 0 -5 -10 -11 -9 -5 -22 -7 -29 -3 -7 4 -8 3 -4 -4 4 -7 2 -12 -3 -12 -6 0 -11 -11 -11 -23 0 -13 -3 -27 -7 -31 -5 -4 -8 -17 -9 -29 0 -25 -21 -68 -38 -79 -25 -17 17 -7 56 13 68 35 146 58 217 65 39 4 76 15 91 26 35 26 151 48 245 47 128 -2 157 -16 35 -18 -124 -2 -222 -22 -267 -57 -23 -17 -39 -23 -57 -18 -14 3 -49 -1 -79 -10 -30 -9 -66 -16 -79 -16 -12 0 -54 -14 -91 -30 -38 -16 -77 -27 -87 -25 -14 3 -17 -1 -13 -12 5 -13 2 -15 -15 -11 -12 4 -22 2 -22 -4 0 -5 -4 -6 -10 -3 -6 3 -7 -1 -4 -9 3 -9 1 -16 -5 -16 -6 0 -11 -9 -11 -20 0 -12 -16 -30 -40 -46 -22 -15 -40 -33 -40 -41 0 -7 -12 -27 -27 -42 -16 -16 -36 -40 -46 -55 -10 -14 -24 -26 -32 -26 -8 0 -12 -6 -9 -14 7 -17 -37 -30 -48 -13 -6 9 -8 9 -8 0 0 -19 -57 -46 -63 -30 -3 7 -6 5 -6 -5 -1 -10 -5 -17 -10 -15 -10 3 -91 -79 -91 -93 0 -6 -6 -13 -14 -16 -8 -3 -12 -12 -9 -21 4 -9 0 -14 -8 -13 -34 5 -47 -2 -53 -26 -4 -14 -12 -23 -19 -21 -11 4 -66 -19 -77 -32 -13 -16 -101 -52 -121 -51 -13 1 -31 2 -39 1 -13 -1 -13 -2 0 -11 13 -9 13 -10 0 -11 -8 -1 -19 -1 -23 0 -5 1 -5 -4 -1 -10 4 -7 1 -10 -7 -7 -8 3 -19 -1 -26 -7 -12 -12 -63 -9 -63 4 0 3 -28 4 -62 2 l-63 -5 67 -7 c83 -9 162 -44 220 -98 l44 -40 85 29 c46 17 91 30 99 30 9 0 22 16 29 35 24 68 118 125 204 125 30 0 39 5 52 29 52 102 220 133 325 61 19 -13 31 -15 53 -8 35 12 80 -4 107 -39 l19 -25 65 26 c45 18 83 26 126 26 33 0 73 6 88 14 30 15 212 66 233 65 8 0 -38 -16 -101 -35 -63 -20 -119 -39 -123 -43 -4 -4 22 -20 58 -36 82 -34 93 -48 17 -21 -44 16 -82 21 -162 21 -97 0 -109 -2 -154 -28 l-50 -28 -36 36 c-24 23 -45 35 -64 35 -23 0 -27 -3 -21 -17 22 -55 18 -57 -28 -17 -73 65 -163 81 -243 45 -41 -19 -75 -57 -88 -97 -6 -20 -10 -21 -47 -12 -76 20 -160 -33 -190 -120 -10 -29 -15 -32 -50 -32 -21 0 -69 -12 -106 -26 -140 -52 -129 -52 -169 -13 -26 24 -33 28 -25 12 9 -18 7 -24 -17 -43 -15 -12 -20 -19 -12 -15 8 4 6 -1 -4 -9 -11 -9 -28 -16 -38 -16 -10 0 -18 -4 -18 -10 0 -5 -10 -10 -22 -10 -13 0 -30 -4 -38 -10 -9 -6 -19 -5 -28 3 -11 8 -16 7 -23 -6 -6 -9 -15 -17 -20 -17 -6 0 -7 5 -3 12 5 8 2 9 -10 5 -10 -4 -29 -7 -42 -7 -18 0 -23 -4 -18 -12 5 -8 2 -8 -10 1 -15 12 -17 12 -14 0 2 -10 -6 -13 -32 -11 -73 7 -92 4 -153 -27 -34 -17 -89 -36 -121 -42 -83 -15 -142 -45 -179 -91 -50 -63 -123 -92 -359 -143 -159 -34 -168 -30 -22 9 270 74 293 83 359 152 65 68 83 78 190 104 l70 17 -82 -1 c-46 0 -83 -5 -83 -9 0 -5 -4 -6 -9 -3 -5 3 -7 16 -4 29 3 12 2 19 -2 15 -4 -4 -17 -1 -29 7 -11 8 -25 15 -31 15 -5 -1 1 -8 15 -16 23 -14 23 -15 3 -11 -12 3 -27 -1 -34 -9 -6 -8 -15 -11 -20 -8 -5 3 -9 -2 -9 -11 0 -15 -1 -15 -16 0 -12 12 -19 13 -30 4 -11 -9 -18 -8 -29 1 -9 7 -37 14 -63 15 -82 3 -85 4 -78 21 5 14 1 16 -24 11 -17 -4 -30 -2 -30 3 0 6 -7 10 -15 10 -8 0 -15 8 -15 18 0 13 2 14 9 3 7 -11 11 -10 20 5 8 14 11 15 11 4 0 -13 1 -13 10 0 13 20 -15 28 -106 29 -60 1 -80 -4 -133 -30 -68 -34 -115 -91 -127 -155 l-6 -32 -111 -5 c-84 -4 -147 -14 -252 -42 -77 -20 -277 -72 -444 -116 -167 -44 -305 -78 -307 -76 -15 15 860 255 991 272 48 6 51 8 68 50 26 63 88 122 164 158 122 57 262 38 371 -51 l56 -45 166 41 c91 23 189 42 218 42 29 0 52 4 52 8 0 5 17 28 37 53 l37 44 -35 -32 c-19 -18 -46 -33 -59 -33 -13 0 -20 3 -17 7 12 11 -62 31 -101 28 -20 -1 -40 2 -45 9 -4 6 -5 -1 -3 -17 4 -24 2 -27 -25 -27 -35 0 -38 13 -6 28 20 11 20 12 2 11 -11 -1 -24 0 -30 1 -5 1 -28 2 -50 1 -32 0 -36 1 -20 9 11 5 16 9 10 10 -5 1 -19 4 -30 6 -11 3 -40 6 -64 7 -25 1 -46 8 -49 15 -2 7 -8 10 -13 6 -5 -3 -9 0 -9 6 0 6 -7 4 -16 -5 -10 -9 -25 -14 -35 -12 -11 3 -19 1 -19 -3 0 -5 -12 -5 -27 -1 -18 5 -27 14 -27 25 2 13 -1 14 -11 6 -10 -8 -17 -7 -26 3 -8 8 -21 12 -31 9 -10 -2 -18 0 -18 6 0 9 -55 28 -72 24 -68 -17 -131 -18 -136 -3 -2 6 -9 8 -14 5 -6 -4 -17 1 -24 11 -7 10 -20 15 -29 12 -11 -5 -15 0 -15 16 0 17 -2 19 -10 7 -8 -12 -10 -12 -16 3 -4 10 -13 16 -21 13 -8 -3 -11 -1 -8 4 3 6 -1 10 -9 10 -9 0 -19 12 -22 26 -4 17 -9 22 -14 14 -4 -7 -13 -10 -19 -6 -7 5 -9 1 -5 -9 4 -10 -4 -7 -21 9 -16 15 -30 24 -33 21 -3 -3 -14 2 -24 12 -10 9 -18 13 -18 9 0 -4 -7 0 -16 8 -8 9 -20 13 -26 10 -7 -4 -8 -2 -4 4 4 6 -5 19 -19 28 -14 9 -25 22 -25 30 0 16 -34 36 -44 26 -4 -3 -4 2 0 11 4 11 -1 26 -12 40 -38 44 -43 61 -25 84 10 11 31 28 47 36 l31 16 -24 -46 c-12 -26 -23 -58 -23 -72 0 -21 7 -14 39 39 47 77 129 164 267 282 55 48 112 100 126 117 24 28 27 29 41 13 9 -9 30 -25 47 -36 l32 -18 -26 48 c-34 65 -33 74 6 37 18 -17 44 -36 58 -43 20 -9 18 -5 -11 22 -20 19 -44 47 -54 62 -25 37 -16 44 135 106 l124 51 33 -18 c18 -10 33 -20 33 -23 0 -19 -61 -59 -98 -65 -32 -5 -49 -15 -68 -40 -27 -35 -25 -59 3 -48 16 6 16 8 -2 -102 -6 -35 -3 -46 24 -83 31 -42 94 -82 108 -68 4 4 1 21 -7 39 -20 46 -19 144 4 189 10 20 14 42 10 49 -5 8 -2 11 7 7 8 -3 50 21 98 57 l84 62 51 -13 51 -14 95 93 c90 88 147 140 250 231 25 22 69 62 99 90 l54 51 -38 -48 c-21 -27 -48 -55 -59 -63 -11 -8 -17 -14 -14 -14 6 0 -176 -246 -265 -358 -14 -18 -2 -25 22 -12 25 13 26 7 7 -23 -8 -12 -17 -37 -21 -55 -5 -25 -3 -32 9 -32 9 0 16 5 16 11 0 5 4 8 9 5 4 -3 11 -29 13 -58 5 -43 11 -57 41 -85 36 -32 82 -51 94 -39 4 3 -4 24 -16 47 -18 31 -25 63 -30 139 l-6 99 35 49 c19 27 48 64 64 82 l28 34 29 -34 c15 -19 26 -42 24 -50 -3 -8 9 -28 26 -44 26 -25 30 -34 24 -62 -6 -37 7 -68 52 -122 20 -23 34 -31 46 -26 21 8 21 18 1 49 -15 24 -15 25 3 25 11 0 28 -7 39 -15 25 -19 87 -19 123 0 34 17 81 70 81 91 0 18 -17 18 -71 -2 -52 -18 -85 -13 -138 20 -28 18 -41 35 -46 58 -11 48 -12 49 -58 22 -23 -13 -49 -24 -57 -24 -8 0 8 11 37 24 l51 24 -20 81 -20 80 75 103 c42 56 88 126 103 156 45 88 19 115 -171 179 l-110 36 115 35 c63 19 140 36 170 37 70 3 93 9 98 23 2 6 10 8 18 5 8 -3 14 1 14 10 0 11 69 34 258 86 314 88 314 88 310 115 -2 11 -11 22 -21 24 -15 3 -475 -117 -535 -139 -15 -6 -30 -4 -42 3 -19 12 -32 10 -130 -19 -9 -2 -33 8 -54 22 -21 14 -42 23 -47 18 -4 -4 -16 -32 -26 -62 -10 -30 -24 -56 -30 -58 -14 -5 40 127 56 136 7 5 -9 17 -38 32 -28 13 -50 30 -51 37 0 15 -10 15 -47 2 -28 -10 -28 -10 -7 8 20 17 20 18 2 57 -9 22 -18 34 -18 27 0 -15 -45 -62 -59 -62 -5 0 4 14 21 30 l30 30 -7 104 c-4 57 -4 113 0 126 l7 22 28 -27 c32 -30 65 -28 75 6 7 22 -32 87 -72 119 -27 21 -28 24 -7 44 14 14 20 13 62 -9 50 -27 62 -30 62 -16 0 5 -9 11 -19 14 -21 5 -57 57 -67 94 -8 30 52 102 86 104 25 1 25 1 2 7 -21 6 -21 9 -9 26 20 28 37 11 37 -37 0 -38 -1 -39 -15 -21 -24 31 -17 6 11 -42 l26 -44 -26 0 c-27 0 -31 -7 -20 -34 5 -14 10 -13 30 9 13 14 21 31 18 39 -3 8 11 19 43 31 91 34 206 99 256 145 73 67 63 74 -87 67 -129 -6 -171 -16 -431 -100 -125 -40 -270 -77 -180 -46 17 5 107 35 200 66 94 31 172 57 174 59 5 4 -52 53 -62 54 -5 0 -5 -4 -2 -10 4 -6 -8 -10 -28 -10 -19 0 -54 -7 -77 -15 -56 -20 -63 -18 -20 5 19 10 52 22 73 25 l39 7 -33 34 c-51 53 -141 109 -206 128 -32 9 -93 29 -136 43 -88 28 -104 25 -167 -27 -41 -35 -33 -37 45 -10 31 11 61 17 66 14 5 -3 23 -25 40 -50 21 -31 45 -52 74 -64 49 -21 61 -47 67 -150 l3 -54 -40 -12 c-22 -7 -57 -13 -77 -13 -33 -1 -42 5 -88 59 -36 40 -67 65 -96 76 -41 16 -49 16 -107 1 -108 -28 -140 -26 -178 12 -22 23 -29 26 -29 13 0 -22 42 -68 82 -88 25 -13 49 -15 108 -11 91 7 99 3 167 -86 l47 -62 -47 43 c-56 51 -95 55 -147 17 -40 -29 -77 -31 -144 -9 -58 20 -128 14 -165 -13 -23 -18 -64 -69 -90 -114 -7 -10 8 -7 46 13 81 41 136 39 196 -8 25 -20 65 -42 89 -49 34 -11 37 -14 17 -14 -14 -1 -51 13 -82 29 -31 17 -69 30 -84 29 l-28 -1 27 -8 c36 -11 123 -73 108 -78 -14 -5 -69 3 -95 13 -47 19 28 -44 78 -65 64 -28 111 -23 178 20 27 18 52 30 55 27 6 -5 -20 -32 -44 -46 -9 -5 -14 -13 -10 -16 13 -13 55 4 105 41 44 33 45 34 20 7 -41 -44 -159 -108 -267 -144 -116 -38 -162 -36 -271 15 -112 52 -163 55 -278 17 -125 -41 -149 -40 -234 11 l-70 42 -150 8 c-84 5 -156 13 -163 19 -11 9 -14 8 -14 0 0 -24 117 -87 202 -110 50 -13 110 -38 149 -61 35 -22 70 -40 78 -40 8 0 12 -3 8 -6 -3 -3 -26 2 -51 11 -58 22 -107 14 -149 -26 l-32 -31 28 7 c44 9 105 -13 151 -56 65 -59 105 -72 198 -64 64 6 83 4 103 -9 26 -17 33 -42 13 -48 -6 -2 -41 -1 -76 4 -36 4 -67 6 -69 4 -2 -1 22 -15 52 -30 63 -31 192 -66 241 -66 61 0 138 22 201 56 34 19 64 34 68 34 4 0 -11 -21 -34 -46 -48 -55 -91 -137 -91 -176 l0 -29 -117 6 c-65 3 -164 8 -220 10 -56 3 -171 17 -254 31 -165 27 -166 27 -369 -14 -52 -11 -140 -28 -195 -38 -71 -13 -90 -20 -65 -22 74 -5 128 -25 210 -77 47 -30 121 -68 165 -86 214 -85 298 -81 684 32 l174 52 33 -39 33 -39 -22 -19 c-44 -38 -264 -137 -356 -160 l-92 -23 103 -21 c57 -12 164 -31 238 -42 144 -23 200 -36 200 -50 0 -5 -17 -17 -37 -27 -30 -14 -38 -23 -38 -45 1 -30 3 -29 -227 -115 -67 -25 -67 -25 -92 -5 -17 12 -35 18 -52 14 -27 -5 -29 -22 -10 -77 4 -11 -2 -3 -14 18 -27 49 -67 72 -155 92 -90 21 -142 44 -188 85 -58 50 -43 12 17 -46 38 -37 69 -57 103 -67 l48 -14 -82 -8 c-45 -4 -106 -4 -135 -1 -49 6 -51 6 -28 -8 24 -14 23 -14 -33 -21 -35 -5 -54 -11 -50 -18 6 -10 226 -3 273 9 14 4 23 4 20 1 -3 -3 -97 -24 -210 -47 -112 -23 -229 -50 -260 -60 l-55 -17 114 -8 c113 -8 126 -17 41 -30 -53 -8 -112 -24 -123 -35 -4 -4 24 -1 64 7 40 7 74 11 76 9 3 -2 -18 -16 -46 -32 -28 -15 -49 -29 -47 -31 2 -3 31 3 64 12 80 23 99 15 31 -13 -52 -21 -52 -21 -14 -15 22 3 71 17 109 29 38 13 71 22 73 20 2 -2 -27 -21 -66 -42 -123 -66 -69 -48 116 39 201 95 242 112 249 105 5 -5 -232 -117 -360 -170 -39 -16 -98 -44 -133 -64 -35 -19 -63 -32 -63 -28 0 4 -7 -1 -16 -12 -14 -18 -15 -18 -6 0 11 22 4 56 -10 56 -6 0 -8 6 -5 14 4 9 0 12 -11 10 -11 -3 -24 7 -37 26 -11 16 -26 28 -32 25 -7 -2 -32 21 -55 51 -24 31 -53 68 -66 82 -66 76 -162 294 -150 340 3 10 -1 23 -8 29 -9 9 -15 7 -26 -9 -10 -15 -20 -19 -32 -15 -25 10 -16 42 12 41 12 0 22 4 23 10 0 6 2 28 4 50 2 21 -1 48 -7 60 -15 26 -28 107 -16 100 4 -3 3 7 -4 23 -22 52 -28 364 -7 390 12 15 12 16 -1 8 -13 -8 -13 -7 0 10 8 10 13 21 11 24 -2 3 6 11 18 17 30 16 36 24 13 17 -28 -7 -39 17 -16 35 14 11 15 13 3 9 -12 -4 -17 1 -18 16 -1 12 -3 42 -5 67 -2 25 0 54 5 65 5 11 13 38 18 60 6 23 19 50 29 61 10 11 22 33 25 49 4 17 9 40 13 53 6 21 3 22 -41 22 -38 0 -46 -3 -41 -15 7 -19 1 -19 -30 2 -22 14 -31 15 -57 5 -20 -7 -33 -8 -35 -3 -12 37 -53 78 -87 89 -49 16 -136 2 -193 -31 -31 -18 -35 -18 -23 -3 19 23 79 53 131 65 60 13 136 -8 173 -49 25 -28 32 -31 65 -25 21 3 58 2 82 -4 25 -5 47 -8 50 -5 2 3 5 22 6 42 0 20 3 44 6 52 10 25 15 45 15 50 0 3 18 39 41 82 23 42 42 83 42 92 0 9 5 16 10 16 6 0 10 4 10 10 0 12 70 111 89 126 12 9 10 12 -8 17 -11 3 -21 12 -21 21 0 12 5 14 24 6 19 -7 26 -5 30 6 3 9 12 14 18 12 19 -7 35 14 31 37 -2 11 -1 15 3 8 4 -10 8 -10 19 0 7 7 11 15 9 19 -12 19 66 107 95 108 7 0 11 6 7 15 -3 8 -1 15 5 15 11 0 69 57 69 68 0 3 -7 14 -17 24 -13 14 -32 18 -92 19 -53 1 -69 3 -51 9 42 14 134 11 156 -4 13 -10 25 -11 35 -5 8 5 23 9 35 9 11 0 28 6 38 13 18 13 18 15 2 39 -18 28 -5 51 17 29 8 -8 7 -11 -3 -11 -7 0 -11 -3 -7 -6 8 -8 77 35 77 47 0 6 4 8 9 4 5 -3 15 1 23 8 20 21 102 72 111 69 4 -1 7 3 7 9 0 6 7 8 16 5 8 -3 12 -2 9 4 -7 11 35 31 48 23 4 -2 7 1 7 7 0 6 4 9 9 6 10 -6 102 24 111 36 3 4 15 9 25 12 43 9 65 19 65 28 0 6 7 5 15 -2 12 -10 15 -10 15 0 0 7 7 10 16 6 8 -3 13 -2 10 3 -3 5 7 11 22 14 54 11 122 33 117 38 -3 3 10 4 28 2 25 -2 28 -1 12 6 -15 6 -9 8 25 8 25 0 65 5 90 11 99 24 142 28 305 29 113 0 172 -4 177 -11z m-1494 -49 c4 -20 -25 -34 -40 -19 -15 15 -1 44 19 40 10 -2 19 -11 21 -21z m480 -44 c-4 -22 -22 -20 -26 1 -2 10 3 16 13 16 10 0 15 -7 13 -17z m1822 -68 c0 -9 -9 -15 -25 -15 -18 0 -23 4 -19 15 4 8 15 15 25 15 10 0 19 -7 19 -15z m-2147 -30 c-5 -16 -33 -21 -33 -7 0 13 22 32 31 26 5 -2 6 -11 2 -19z m-492 -54 c-5 -25 -6 -25 -9 -3 -2 12 -10 22 -18 22 -11 0 -10 4 4 18 14 15 18 15 23 3 3 -8 3 -26 0 -40z m-603 26 c2 -10 -3 -17 -12 -17 -18 0 -29 16 -21 31 9 14 29 6 33 -14z m3653 4 c72 0 165 -29 193 -60 16 -17 11 -17 -41 5 -61 25 -150 32 -182 14 -13 -7 -29 -4 -57 11 -38 20 -102 22 -184 4 -14 -3 -2 4 25 14 38 15 66 19 115 16 36 -2 94 -4 131 -4z m834 -101 c11 -18 -6 -50 -26 -50 -22 0 -34 22 -25 45 6 17 42 20 51 5z m-4223 -147 c-13 -21 -14 -21 -33 -2 -18 18 -18 20 -1 37 15 15 19 15 33 2 13 -13 13 -18 1 -37z m3538 -78 c0 -8 -7 -15 -15 -15 -16 0 -20 12 -8 23 11 12 23 8 23 -8z m460 -100 c8 -1 14 -8 12 -15 -1 -7 3 -18 9 -26 18 -22 -6 -16 -26 6 -28 31 -61 26 -138 -24 -21 -15 -26 -15 -22 -4 14 35 103 82 135 71 8 -3 22 -6 30 -8z m-312 -13 c2 -7 -3 -12 -12 -12 -9 0 -16 7 -16 16 0 17 22 14 28 -4z m-3490 -40 c2 -7 -3 -12 -12 -12 -9 0 -16 7 -16 16 0 17 22 14 28 -4z m-395 -97 c17 -6 19 -8 6 -12 -9 -2 -21 -14 -27 -26 -9 -20 -11 -20 -11 -3 -1 10 -9 25 -18 32 -17 13 -17 13 0 14 9 0 18 8 18 18 1 15 2 15 6 1 2 -10 14 -20 26 -24z m307 -15 c0 -5 -7 -10 -15 -10 -8 0 -15 5 -15 10 0 6 7 10 15 10 8 0 15 -4 15 -10z m10 -210 c0 -5 -4 -10 -10 -10 -5 0 -10 5 -10 10 0 6 5 10 10 10 6 0 10 -4 10 -10z m1449 -54 c-2 -2 -17 -6 -34 -10 -22 -5 -26 -4 -15 4 14 9 59 15 49 6z m643 -35 c5 -4 -7 -5 -26 -3 -21 2 -49 -4 -76 -18 -34 -18 -52 -21 -84 -15 -75 14 -103 10 -143 -20 -26 -19 -32 -22 -20 -8 10 12 33 28 50 37 27 13 29 16 13 22 -12 4 -38 -3 -72 -19 -53 -26 -108 -35 -118 -19 -2 4 10 6 29 4 23 -3 47 4 77 22 54 32 66 32 143 4 l61 -21 54 26 c52 24 93 27 112 8z m-501 -18 c13 -16 12 -17 -3 -4 -10 7 -18 15 -18 17 0 8 8 3 21 -13z m635 -99 c15 -25 25 -46 23 -48 -2 -2 -18 21 -36 50 -17 30 -27 52 -22 49 5 -4 21 -26 35 -51z m-72 -77 c27 -62 27 -62 59 -46 20 9 20 9 -2 -11 -13 -11 -28 -19 -33 -18 -7 3 -78 154 -78 168 0 12 31 -42 54 -93z m1674 70 c2 -12 -3 -17 -17 -17 -12 0 -21 6 -21 13 0 31 32 34 38 4z m-2125 -48 c-6 -6 -33 -13 -60 -15 l-48 -4 55 14 c30 7 57 14 60 15 2 0 -1 -4 -7 -10z m634 -65 c12 -19 12 -24 -2 -38 -22 -22 -34 -20 -44 6 -19 52 16 76 46 32z m-287 -48 c0 -2 -42 -31 -92 -65 -138 -91 -137 -89 -129 -142 4 -24 4 -69 0 -99 -6 -51 -6 -48 -8 33 -1 65 -6 99 -21 130 -14 28 -15 35 -4 20 21 -30 27 -29 67 7 19 16 68 50 108 75 77 46 79 47 79 41z m-721 -82 c81 -29 61 -31 -34 -4 -38 11 -90 20 -115 21 -38 1 -41 2 -20 9 33 11 89 3 169 -26z m877 -69 c-8 -42 -56 -100 -100 -121 l-31 -15 30 23 c61 46 83 74 90 117 4 23 9 40 12 37 3 -3 2 -21 -1 -41z m-2426 -9 c0 -22 -18 -39 -34 -33 -19 7 -21 43 -3 50 17 6 37 -3 37 -17z m1730 -1 c0 -12 -168 -86 -206 -91 -33 -5 -29 -2 26 19 36 14 90 36 120 50 64 30 60 29 60 22z m-1815 -30 c-16 -8 -59 -14 -95 -13 l-65 1 70 8 c39 5 75 11 80 13 27 11 36 3 10 -9z m1902 -77 c-3 -8 -6 -5 -6 6 -1 11 2 17 5 13 3 -3 4 -12 1 -19z m2526 -29 l32 -1 -27 -9 c-15 -6 -30 -20 -34 -32 l-7 -22 -8 23 c-5 13 -17 22 -29 22 -11 0 -20 5 -20 10 0 6 9 10 19 10 11 0 23 10 27 23 l8 22 4 -22 c3 -18 10 -23 35 -24z m-2359 -21 c6 -46 15 -55 49 -49 5 1 5 -3 2 -10 -4 -6 -17 -8 -29 -5 -21 5 -21 3 -15 -57 3 -34 5 -63 5 -63 -1 -1 -19 -4 -41 -7 -40 -6 -40 -6 -7 5 27 9 32 16 32 42 0 17 -3 42 -7 55 -6 22 -10 23 -57 18 l-51 -6 34 14 c18 8 42 15 52 15 26 0 24 8 -8 44 -16 17 -20 24 -10 17 15 -12 17 -11 17 11 0 47 27 28 34 -24z m-157 10 c-3 -8 -6 -5 -6 6 -1 11 2 17 5 13 3 -3 4 -12 1 -19z m350 -34 c31 -14 53 -28 49 -31 -6 -7 -75 21 -121 50 -24 15 -26 17 -7 12 13 -4 49 -18 79 -31z m-323 -34 c5 -17 4 -20 -2 -10 -5 8 -13 26 -16 40 -5 17 -4 20 2 10 5 -8 13 -26 16 -40z m710 37 c16 -12 14 -13 -18 -9 -20 2 -33 8 -30 13 8 13 27 11 48 -4z m-172 -72 c39 -42 84 -83 100 -93 15 -9 28 -19 28 -23 0 -3 -27 -13 -61 -23 l-61 -17 -60 37 c-57 35 -98 82 -98 114 0 15 58 80 72 80 4 0 40 -34 80 -75z m-156 -112 c-5 -5 -36 74 -36 90 1 6 10 -10 20 -37 11 -28 18 -51 16 -53z m454 48 c0 -9 -33 -21 -59 -21 -11 0 -11 3 -1 15 13 16 60 21 60 6z m-648 -111 c13 -6 34 -28 47 -48 l23 -37 -29 31 c-16 18 -39 34 -50 38 -21 7 -43 45 -43 74 1 9 7 2 15 -15 8 -18 24 -38 37 -43z m233 51 c-13 -11 -166 -61 -185 -60 -8 0 28 16 80 34 102 36 120 40 105 26z m-350 -50 c-19 -19 -442 -127 -453 -117 -4 5 5 8 218 60 80 20 165 43 190 51 56 17 56 17 45 6z m-1817 -49 c2 -14 -2 -22 -12 -22 -19 0 -29 17 -22 36 8 22 30 12 34 -14z m2182 -6 c0 -7 -157 -66 -190 -71 -35 -5 -35 -5 5 9 22 8 67 26 100 39 57 24 85 32 85 23z m-1285 -46 c-27 -5 -79 -8 -115 -7 l-65 1 75 6 c41 4 93 7 115 7 37 0 37 0 -10 -7z m314 -44 c-2 -2 -40 -11 -84 -19 -100 -20 -228 -31 -200 -18 11 5 40 10 65 11 25 1 77 7 115 14 74 14 111 19 104 12z m-1424 -92 c-17 -18 -50 -7 -35 11 6 7 19 11 30 8 16 -4 17 -7 5 -19z m2780 -51 c-42 -65 -182 -240 -199 -250 -6 -4 6 14 28 41 79 98 196 257 196 268 0 6 3 8 7 5 3 -4 -11 -33 -32 -64z m-315 -3 c-136 -111 -477 -370 -489 -370 -7 0 20 26 60 57 156 121 453 343 458 342 3 0 -10 -13 -29 -29z m-2342 9 c-2 -6 -8 -10 -13 -10 -5 0 -11 4 -13 10 -2 6 4 11 13 11 9 0 15 -5 13 -11z m2052 -13 c0 -8 -128 -86 -180 -110 -109 -48 -103 -36 11 22 65 33 127 67 140 76 24 17 29 19 29 12z m2248 -67 c15 -1 15 -2 0 -6 -10 -2 -18 -9 -18 -14 0 -5 -6 -4 -14 3 -10 10 -11 17 -2 31 9 15 12 15 14 2 2 -8 11 -16 20 -16z m-118 -154 c0 -8 -7 -15 -15 -15 -16 0 -20 12 -8 23 11 12 23 8 23 -8z m-259 -128 c-1 -12 -15 -9 -19 4 -3 6 1 10 8 8 6 -3 11 -8 11 -12z m187 -59 c-2 -13 -10 -23 -18 -23 -8 0 -16 10 -18 23 -3 17 2 22 18 22 16 0 21 -5 18 -22z m-2734 -128 c4 -8 0 -6 -8 4 -10 12 -15 37 -15 60 l2 41 6 -45 c4 -25 10 -52 15 -60z m-309 -1 c-60 -16 -117 -27 -125 -26 -18 4 185 56 215 55 11 0 -29 -13 -90 -29z m-762 -31 c18 -14 19 -18 5 -18 -9 0 -21 -12 -26 -27 -10 -26 -10 -26 -11 -5 -1 15 -10 26 -28 34 -27 11 -27 12 -6 15 15 3 26 14 30 31 6 23 8 24 11 7 2 -11 14 -28 25 -37z m827 -88 c-30 -16 -59 -29 -65 -29 -5 0 15 13 45 29 30 16 60 29 65 29 6 0 -15 -13 -45 -29z m170 15 c0 -11 -168 -114 -260 -160 -52 -26 -106 -56 -119 -66 -13 -10 -28 -16 -33 -13 -5 4 55 41 134 84 80 43 174 96 209 118 71 45 69 44 69 37z m-381 -151 c-7 -9 -22 -20 -34 -26 -49 -22 -77 -41 -81 -53 -7 -17 -34 -8 -34 11 0 8 -6 14 -14 14 -8 0 -18 5 -22 12 -5 8 0 9 14 6 12 -4 22 -2 22 3 0 6 6 9 13 8 6 -1 19 1 27 4 19 9 102 35 114 36 5 1 2 -6 -5 -15z m-634 -4 c22 -6 9 -8 -48 -9 -45 0 -93 -8 -114 -16 -30 -13 -43 -13 -66 -4 -17 7 -56 10 -100 7 l-72 -6 45 15 c25 7 75 13 112 11 37 -1 70 1 74 5 9 9 130 7 169 -3z m695 -103 c0 -2 -15 -16 -32 -33 -27 -24 -29 -25 -13 -4 24 30 45 47 45 37z m-120 -20 c0 -2 -10 -12 -22 -23 l-23 -19 19 23 c18 21 26 27 26 19z m2616 -54 c-3 -3 -13 -2 -23 1 -17 7 -17 8 2 22 18 13 20 13 23 -1 2 -9 1 -19 -2 -22z m-2601 -3 c-10 -11 -27 -22 -39 -26 -11 -3 -29 -13 -39 -22 -9 -8 -19 -13 -22 -10 -3 3 21 23 52 46 60 42 79 47 48 12z m-469 -41 c-21 -5 -51 -18 -66 -29 -15 -11 -43 -20 -61 -20 -18 0 -53 -12 -78 -27 -44 -25 -45 -25 -26 -3 25 29 98 62 119 54 9 -3 16 -2 16 3 0 17 43 32 90 31 l45 0 -39 -9z m3546 -43 c3 2 20 -3 39 -11 34 -16 34 -16 -35 -11 -42 4 -74 1 -82 -5 -10 -8 -19 -6 -36 6 -21 15 -21 16 -3 14 11 -1 31 3 45 8 14 6 34 7 46 2 12 -4 24 -6 26 -3z m-3284 -48 c30 -30 -4 -77 -41 -57 -29 17 -15 69 18 69 6 0 16 -5 23 -12z m2492 -52 c0 -2 -7 -6 -15 -10 -8 -3 -15 -1 -15 4 0 6 7 10 15 10 8 0 15 -2 15 -4z m-40 -76 c0 -11 -7 -20 -15 -20 -27 0 -18 30 13 39 1 1 2 -8 2 -19z m-222 -107 c-2 -9 -11 -17 -20 -19 -22 -3 -22 0 -2 20 20 20 26 20 22 -1z m183 -26 c-1 -12 -15 -9 -19 4 -3 6 1 10 8 8 6 -3 11 -8 11 -12z m-291 -32 c0 -8 -7 -15 -15 -15 -26 0 -18 20 13 29 1 1 2 -6 2 -14z m-1280 -11 c0 -2 -15 -4 -32 -4 -23 0 -29 3 -19 9 12 8 51 4 51 -5z m-392 -60 c18 -12 43 -17 78 -15 29 1 55 -3 59 -9 4 -6 -8 -10 -32 -11 -21 0 -47 -4 -58 -8 -13 -5 -30 -2 -50 11 -58 35 -161 17 -202 -35 -14 -18 -40 -30 -89 -43 -38 -9 -105 -32 -148 -50 -44 -19 -81 -32 -83 -30 -8 7 155 85 212 101 42 12 67 26 84 47 52 65 163 85 229 42z m2172 -9 c0 -8 -7 -15 -15 -15 -8 0 -15 7 -15 15 0 8 7 15 15 15 8 0 15 -7 15 -15z m-1286 -97 c-9 -14 -23 2 -17 18 4 12 8 13 14 3 4 -7 5 -17 3 -21z m1871 -19 c-60 -17 -148 -34 -195 -39 -47 -5 -119 -18 -160 -29 -41 -11 -76 -18 -78 -16 -2 2 47 20 110 40 76 25 125 35 148 32 19 -2 80 6 135 19 144 33 169 28 40 -7z m-1044 -83 c-24 -29 -401 -144 -434 -133 -6 2 57 22 139 46 82 24 183 56 224 71 41 15 77 28 79 29 2 0 -2 -5 -8 -13z m-1014 -31 c0 -8 -4 -12 -9 -9 -5 3 -6 10 -3 15 9 13 12 11 12 -6z m1782 -89 c-2 -2 -51 -13 -109 -26 -58 -12 -120 -29 -138 -37 -19 -9 -59 -17 -90 -18 -31 -1 -93 -14 -136 -29 -44 -14 -85 -25 -90 -23 -6 2 7 10 29 17 22 7 62 24 90 36 34 16 68 24 107 24 31 0 67 5 80 10 36 17 271 59 257 46z m-2115 -106 c-68 -24 -345 -93 -350 -87 -7 6 355 105 386 105 8 0 -8 -8 -36 -18z m-523 -156 c-102 -34 -412 -116 -417 -111 -8 7 446 136 476 135 8 0 -18 -11 -59 -24z"/>
<path d="M2723 4633 c9 -2 23 -2 30 0 6 3 -1 5 -18 5 -16 0 -22 -2 -12 -5z"/>
<path d="M2918 4503 c7 -3 16 -2 19 1 4 3 -2 6 -13 5 -11 0 -14 -3 -6 -6z"/>
<path d="M3080 4460 c19 -13 30 -13 30 0 0 6 -10 10 -22 10 -19 0 -20 -2 -8 -10z"/>
<path d="M2000 4430 c-9 -6 -10 -10 -3 -10 6 0 15 5 18 10 8 12 4 12 -15 0z"/>
<path d="M1388 4363 c7 -3 16 -2 19 1 4 3 -2 6 -13 5 -11 0 -14 -3 -6 -6z"/>
<path d="M2915 4270 c3 -5 8 -10 11 -10 2 0 4 5 4 10 0 6 -5 10 -11 10 -5 0 -7 -4 -4 -10z"/>
<path d="M3395 4250 c3 -5 8 -10 11 -10 2 0 4 5 4 10 0 6 -5 10 -11 10 -5 0 -7 -4 -4 -10z"/>
<path d="M1635 4205 c-22 -19 -35 -34 -30 -34 6 0 28 15 50 34 22 19 36 35 30 35 -5 0 -28 -16 -50 -35z"/>
<path d="M3496 4226 c10 -8 21 -12 24 -10 5 6 -21 24 -34 24 -6 0 -1 -6 10 -14z"/>
<path d="M2150 4020 c-11 -7 -6 -10 20 -10 26 0 31 3 20 10 -8 5 -17 10 -20 10 -3 0 -12 -5 -20 -10z"/>
<path d="M2140 3990 c-8 -5 -10 -10 -5 -10 6 0 17 5 25 10 8 5 11 10 5 10 -5 0 -17 -5 -25 -10z"/>
<path d="M3315 3960 c-4 -6 7 -10 27 -10 25 0 29 3 18 10 -19 13 -37 13 -45 0z"/>
<path d="M1295 3749 c-4 -6 -5 -12 -2 -15 2 -3 7 2 10 11 7 17 1 20 -8 4z"/>
<path d="M1790 3555 c0 -8 5 -15 10 -15 6 0 10 7 10 15 0 8 -4 15 -10 15 -5 0 -10 -7 -10 -15z"/>
<path d="M2040 3501 c0 -14 38 -43 53 -39 9 2 2 11 -19 25 -19 12 -34 18 -34 14z"/>
<path d="M3326 3472 c-3 -6 -1 -14 5 -17 15 -10 25 3 12 16 -7 7 -13 7 -17 1z"/>
<path d="M1530 3440 c0 -5 7 -10 15 -10 8 0 15 5 15 10 0 6 -7 10 -15 10 -8 0 -15 -4 -15 -10z"/>
<path d="M3320 3400 c0 -5 7 -10 16 -10 8 0 12 5 9 10 -3 6 -10 10 -16 10 -5 0 -9 -4 -9 -10z"/>
<path d="M1495 2480 c3 -5 8 -10 11 -10 2 0 4 5 4 10 0 6 -5 10 -11 10 -5 0 -7 -4 -4 -10z"/>
<path d="M1590 2434 c0 -7 11 -16 63 -55 42 -32 32 -17 -18 24 -25 21 -45 35 -45 31z"/>
<path d="M2775 2302 c-72 -65 -150 -141 -175 -168 l-45 -49 35 -3 c31 -3 40 2 75 40 46 52 247 298 243 298 -2 0 -62 -53 -133 -118z"/>
<path d="M1590 2190 c0 -5 5 -10 11 -10 5 0 7 5 4 10 -3 6 -8 10 -11 10 -2 0 -4 -4 -4 -10z"/>
<path d="M1173 1750 c-29 -17 -53 -33 -53 -36 0 -5 88 43 105 58 17 15 0 8 -52 -22z"/>
<path d="M3563 1583 c15 -2 37 -2 50 0 12 2 0 4 -28 4 -27 0 -38 -2 -22 -4z"/>
<path d="M3683 1553 c9 -2 25 -2 35 0 9 3 1 5 -18 5 -19 0 -27 -2 -17 -5z"/>
<path d="M1640 1356 c0 -2 7 -7 16 -10 8 -3 12 -2 9 4 -6 10 -25 14 -25 6z"/>
<path d="M1623 1304 c0 -6 9 -9 19 -6 27 7 29 17 4 17 -13 0 -23 -5 -23 -11z"/>
<path d="M1976 1186 c2 -6 14 -12 24 -13 25 -2 18 13 -9 20 -12 3 -18 0 -15 -7z"/>
<path d="M2968 1123 c7 -3 16 -2 19 1 4 3 -2 6 -13 5 -11 0 -14 -3 -6 -6z"/>
<path d="M2988 1053 c7 -3 16 -2 19 1 4 3 -2 6 -13 5 -11 0 -14 -3 -6 -6z"/>
<path d="M3060 1056 c0 -2 11 -6 25 -8 13 -3 22 -1 19 3 -5 9 -44 13 -44 5z"/>
<path d="M2161 911 c-1 -8 7 -19 16 -26 19 -14 46 -9 37 7 -4 6 -10 5 -15 -3 -7 -11 -9 -10 -9 4 0 10 -4 16 -9 13 -5 -4 -12 0 -14 6 -4 10 -6 9 -6 -1z"/>
<path d="M2747 902 c-10 -10 -17 -26 -17 -34 0 -11 -7 -15 -22 -12 -21 4 -21 4 -3 -4 13 -6 42 -5 80 3 33 8 53 14 45 15 -8 1 -19 2 -24 1 -13 -3 -46 31 -40 40 9 15 -2 10 -19 -9z m17 -10 c3 -5 -1 -9 -9 -9 -8 0 -12 4 -9 9 3 4 7 8 9 8 2 0 6 -4 9 -8z"/>
<path d="M2603 903 c9 -2 23 -2 30 0 6 3 -1 5 -18 5 -16 0 -22 -2 -12 -5z"/>
<path d="M2478 873 c7 -3 16 -2 19 1 4 3 -2 6 -13 5 -11 0 -14 -3 -6 -6z"/>
<path d="M2388 853 c7 -3 16 -2 19 1 4 3 -2 6 -13 5 -11 0 -14 -3 -6 -6z"/>
</g>
</svg>